<svg xmlns="http://www.w3.org/2000/svg" viewBox="0 0 362.45 512.6"><defs><style>.cls-1{fill:#fff;}.cls-2{fill:#eeeded;}</style></defs><g id="Camada_2" data-name="Camada 2"><g id="_2-Página_Inicial" data-name="2-Página Inicial"><g id="quem_somos" data-name="quem somos"><rect class="cls-1" width="362.45" height="512.6"/><path class="cls-2" d="M99.71,143.25c-1,3.44-4.18,6.31-8.13,4.82-3.65-1.38-3.54-3.32-9.06-4.47-2.57-.54-4.73,0-7-.64a9.66,9.66,0,0,1-6.68-7.54c-.69-4.18.56-8.37,4.71-9.69,1.42-.45,2.9-.73,4.3-1.23,6.21-2.22,4.39-8,10.52-10.72a6.74,6.74,0,0,1,6.72,1c2.43,2.23,2.17,6.08,1.72,9.09-.29,2-1.18,3.71-.38,5.64a65,65,0,0,0,2.84,5.89A8.4,8.4,0,0,1,99.71,143.25Z"/><path class="cls-2" d="M72.62,119.91a7.11,7.11,0,0,1-3.06-2.06,17,17,0,0,1-4.35-9.15c-.42-3.1.94-6.64,4-7.7,2.34-.82,4.39-.19,6.3,1.77,3,3.1,3.6,6.64,4.5,13,.3,2.12-.47,4.25-2.85,4.71A9.19,9.19,0,0,1,72.62,119.91Z"/><path class="cls-2" d="M93.47,97.06c2.06,3.66,1,8.07-.11,11.93a6.2,6.2,0,0,1-.85,2c-2.51,3.45-9.33.88-10.84-5.37a12.05,12.05,0,0,1,1.75-10.36C85.67,92.35,91.21,93,93.47,97.06Z"/><path class="cls-2" d="M115.3,126.86a16.76,16.76,0,0,1-1.34,2.55c-4.44,6.65-17,1.08-13.9-5.38,2.07-4.28,5.92-7.13,11.09-6.93,4,.15,5.57,3.53,4.82,7.31A12.54,12.54,0,0,1,115.3,126.86Z"/><path class="cls-2" d="M97.7,113.92c-1.83-2.27.4-6,1.91-8.25s4.33-4.33,7.11-4.57c3.61-.3,7,2.75,6.09,6.65a14.34,14.34,0,0,1-2.67,5.08,9,9,0,0,1-7.83,3.93C100.78,116.68,98.84,115.33,97.7,113.92Z"/><path class="cls-2" d="M15,22.49a64.78,64.78,0,0,1-2.84-5.88c-.8-1.94.09-3.64.38-5.64.45-3,.71-6.86-1.72-9.1a6.76,6.76,0,0,0-6.72-1A8.85,8.85,0,0,0,0,4.41V31.13c3.81,1.17,4.11,2.82,7.33,4,3.95,1.49,7.14-1.38,8.13-4.81A8.42,8.42,0,0,0,15,22.49Z"/><path class="cls-2" d="M31.05,14a16.86,16.86,0,0,1-1.34,2.56c-4.44,6.65-17,1.08-13.9-5.38C17.88,6.85,21.73,4,26.9,4.2c4,.15,5.57,3.52,4.82,7.3A12.17,12.17,0,0,1,31.05,14Z"/><path class="cls-2" d="M12.92,0a3,3,0,0,0,.53,1c1.14,1.41,3.08,2.76,4.61,2.85A8.9,8.9,0,0,0,25.83,0Z"/><path class="cls-2" d="M163.2,69c1.1,3.4.05,7.56-4.06,8.53-3.8.9-4.79-.77-10,1.35-2.44,1-3.95,2.61-6.19,3.39a9.67,9.67,0,0,1-9.75-2.53c-2.9-3.08-4.2-7.26-1.49-10.67.93-1.16,2-2.22,2.88-3.42,3.92-5.31-.8-9.08,2.76-14.77A6.75,6.75,0,0,1,143.48,48c3.26.5,5.19,3.83,6.5,6.59.86,1.82,1.08,3.73,2.82,4.89a60.69,60.69,0,0,0,5.64,3.3A8.4,8.4,0,0,1,163.2,69Z"/><path class="cls-2" d="M127.71,64.73a7.1,7.1,0,0,1-3.69,0,17,17,0,0,1-8.71-5.17c-2.07-2.34-2.92-6-1-8.6,1.48-2,3.53-2.61,6.2-2,4.24.89,6.7,3.5,11,8.29,1.43,1.59,2,3.78.26,5.5A9.23,9.23,0,0,1,127.71,64.73Z"/><path class="cls-2" d="M132.29,34.12c3.74,1.9,5.36,6.12,6.55,10a6.2,6.2,0,0,1,.41,2.13c-.16,4.27-7.25,5.94-12,1.6a12.08,12.08,0,0,1-4.32-9.58C123.19,34.57,128.15,32,132.29,34.12Z"/><path class="cls-2" d="M167,46.68a16.16,16.16,0,0,1,.31,2.87c0,8-13.54,10.4-14.54,3.29-.66-4.71.95-9.22,5.35-11.94,3.43-2.13,6.59-.19,8.07,3.37A12.65,12.65,0,0,1,167,46.68Z"/><path class="cls-2" d="M145.19,45.76c-2.79-.86-3-5.2-3-7.91s1.18-6,3.36-7.76c2.82-2.26,7.35-1.64,8.76,2.11a14.39,14.39,0,0,1,.61,5.72,9,9,0,0,1-4.31,7.63C149.28,46.33,146.93,46.29,145.19,45.76Z"/><path class="cls-2" d="M41.68,284.63c1.8,3.09,1.66,7.38-2.16,9.2-3.51,1.69-4.84.26-9.49,3.45-2.17,1.48-3.3,3.39-5.32,4.63a9.64,9.64,0,0,1-10.06-.4c-3.5-2.4-5.66-6.21-3.73-10.11.65-1.34,1.48-2.6,2.09-3.95,2.69-6-2.73-8.71-.46-15a6.78,6.78,0,0,1,5.38-4.17c3.29-.2,5.89,2.65,7.75,5.06,1.23,1.6,1.85,3.42,3.8,4.18a61.72,61.72,0,0,0,6.21,2A8.39,8.39,0,0,1,41.68,284.63Z"/><path class="cls-2" d="M8.2,279.86c-3.34-2.41-5.76-4.11-8.2-5v13.7a18.42,18.42,0,0,0,2.49.25A7.23,7.23,0,0,0,6.1,288a9.11,9.11,0,0,0,3.52-2.84C10.94,283.13,9.93,281.11,8.2,279.86Z"/><path class="cls-2" d="M13.43,267.48a6.25,6.25,0,0,0-.86-2c-2-3.51-4.45-7.29-8.52-8.34a6.94,6.94,0,0,0-4,.16v12.86a16,16,0,0,0,2.06,1.43C7.61,274.82,14.18,271.68,13.43,267.48Z"/><path class="cls-2" d="M40.65,262a16.3,16.3,0,0,1,.91,2.74c1.72,7.81-11,13-13.5,6.31-1.65-4.46-1-9.21,2.68-12.81,2.9-2.8,6.4-1.58,8.61,1.58A12.94,12.94,0,0,1,40.65,262Z"/><path class="cls-2" d="M19.14,265.76c-2.91-.25-4.05-4.43-4.63-7.09s-.13-6.13,1.63-8.29c2.28-2.81,6.84-3.17,9,.2A14.38,14.38,0,0,1,27,256a8.94,8.94,0,0,1-2.58,8.37C23.26,265.45,20.94,265.91,19.14,265.76Z"/><path class="cls-2" d="M140.47,392c1.8,3.09,1.66,7.38-2.15,9.21-3.52,1.68-4.85.25-9.5,3.44-2.16,1.48-3.29,3.39-5.32,4.63a9.64,9.64,0,0,1-10.06-.4c-3.5-2.4-5.65-6.21-3.73-10.11.66-1.34,1.48-2.6,2.09-4,2.7-6-2.72-8.71-.45-15a6.76,6.76,0,0,1,5.37-4.17c3.29-.2,5.89,2.65,7.76,5.06,1.23,1.6,1.85,3.42,3.8,4.18a61.72,61.72,0,0,0,6.21,2A8.38,8.38,0,0,1,140.47,392Z"/><path class="cls-2" d="M104.89,395.35a7.22,7.22,0,0,1-3.6.78,17,17,0,0,1-9.62-3.2c-2.52-1.84-4.14-5.27-2.81-8.19,1-2.26,2.9-3.3,5.63-3.32,4.33,0,7.29,2,12.5,5.77,1.73,1.25,2.74,3.28,1.42,5.32A9.11,9.11,0,0,1,104.89,395.35Z"/><path class="cls-2" d="M102.85,364.47c4.06,1,6.54,4.83,8.52,8.34a6.23,6.23,0,0,1,.85,2c.76,4.21-5.81,7.34-11.37,4.11a12.06,12.06,0,0,1-6.26-8.44C94.05,366.84,98.36,363.3,102.85,364.47Z"/><path class="cls-2" d="M139.45,369.35a17.26,17.26,0,0,1,.91,2.74c1.72,7.81-11,13-13.5,6.31-1.65-4.46-1-9.21,2.67-12.81,2.9-2.8,6.41-1.58,8.61,1.58A13,13,0,0,1,139.45,369.35Z"/><path class="cls-2" d="M117.93,373.09c-2.91-.25-4.05-4.43-4.63-7.09s-.12-6.13,1.63-8.29c2.28-2.81,6.84-3.17,9,.2a14.21,14.21,0,0,1,1.81,5.46,8.91,8.91,0,0,1-2.58,8.37C122.05,372.78,119.74,373.24,117.93,373.09Z"/><path class="cls-2" d="M154.47,512.6a13.26,13.26,0,0,1,1.55-1.26c4.65-3.18,6-1.76,9.49-3.44,3.82-1.83,4-6.11,2.16-9.2a8.38,8.38,0,0,0-6-5.11,59.28,59.28,0,0,1-6.21-2c-1.95-.76-2.57-2.58-3.8-4.18-1.86-2.41-4.46-5.26-7.75-5.05a6.76,6.76,0,0,0-5.38,4.16c-2.27,6.31,3.15,9,.45,15-.6,1.36-1.43,2.62-2.08,3.95a6.77,6.77,0,0,0,.67,7.14Z"/><path class="cls-2" d="M132.08,502.08a7.21,7.21,0,0,1-3.6.79,17,17,0,0,1-9.61-3.21c-2.52-1.84-4.14-5.27-2.82-8.18,1-2.26,2.9-3.3,5.63-3.32,4.34,0,7.29,2,12.51,5.76,1.73,1.25,2.74,3.28,1.42,5.32A9.07,9.07,0,0,1,132.08,502.08Z"/><path class="cls-2" d="M130,471.2c4.06,1.06,6.54,4.84,8.52,8.35a6.29,6.29,0,0,1,.86,2c.75,4.21-5.82,7.35-11.38,4.12a12.13,12.13,0,0,1-6.26-8.44C121.24,473.58,125.55,470,130,471.2Z"/><path class="cls-2" d="M166.64,476.08a17.6,17.6,0,0,1,.91,2.74c1.72,7.81-11,13.05-13.5,6.31-1.65-4.46-1-9.21,2.68-12.81,2.9-2.8,6.4-1.58,8.61,1.58A12.94,12.94,0,0,1,166.64,476.08Z"/><path class="cls-2" d="M145.12,479.82c-2.9-.24-4-4.43-4.62-7.08s-.13-6.13,1.63-8.3c2.28-2.81,6.83-3.16,9,.21A14.24,14.24,0,0,1,153,470.1a9,9,0,0,1-2.58,8.37C149.24,479.52,146.93,480,145.12,479.82Z"/><path class="cls-2" d="M111.67,3c-2.12-1.47-7.25-1.72-11.31,1A19.46,19.46,0,0,0,97.8,0H86.06a9.37,9.37,0,0,0-2.13,3.22c-2.64,6.83,1.85,10.67,1.36,17.5a1.42,1.42,0,0,0,2.8.43,3.83,3.83,0,0,0,.1-.59,8.92,8.92,0,0,0,0-3C87,9.8,85.83,9.81,86.43,6.25c.93-5.57,6.27-7,9.11-3.9A8.33,8.33,0,0,1,97.6,6.69a2,2,0,0,0,3.46.73c1.71-2,4.62-2.68,7.15-2.37a5.55,5.55,0,0,1,4.52,5.45c-.44,4.94-4.22,6.85-7,14.18C100.61,38.36,97,44.59,95.84,63.16a12.3,12.3,0,0,0,0,3.32,11.42,11.42,0,0,1-.45,5.29c-.51,1.88-2.1,4-3.76,4.28-3.27.52-6.36-.61-7.62-4.15-.25-.71-.46-1.44-.74-2.14A1.52,1.52,0,0,0,80.84,69a11.12,11.12,0,0,0-1.9,1.43,3.46,3.46,0,0,1-1.78.91c-2,.4-4.59,1.5-7.06-1.71a4.55,4.55,0,0,1-.74-5,10.84,10.84,0,0,1,2.35-3.4c1.3-1.23,2.54-2.51,3.87-3.7,6.2-5.5,7.47-12.31,8.86-17.78.24-.92.45-1.85.6-2.79a1.44,1.44,0,0,0-2.78-.77C81.72,37.35,80.91,42,79,47.12c-4,10.52-13.11,10.36-13.62,21.3a5.78,5.78,0,0,0,2.91,5.51A10.16,10.16,0,0,0,80,73.69c.31-.22.53-.59,1-.58,2.12,4.37,4,5.38,7.13,6A8,8,0,0,0,94.89,78,8.84,8.84,0,0,0,98,73.71a34.87,34.87,0,0,0,1.37-12c-.26-10,3.38-19.48,5.21-25.53,1-3.35,2.7-6.42,3.91-9.69,2.72-7.38,5.75-8.55,7.17-13.9C116.73,8.56,115,5.27,111.67,3Z"/><path class="cls-2" d="M85.9,24.21a1.37,1.37,0,0,1,1.2,1.52,9.85,9.85,0,0,1-.22,1.88,1.42,1.42,0,0,1-2.83-.27C84,26.66,84.42,24,85.9,24.21Z"/><path class="cls-2" d="M20.61,86.71c1.77-4.59,6.13-7.29,8.71-7.29,4,0,7.33,1.72,8.74,5.66,1.87,5.21,0,7.9,2,15.51.87,3.38,1.23,6.87,2.3,10.21,1.92,6,4.31,15.85,10.22,24a35.36,35.36,0,0,1,5.68,10.65,8.81,8.81,0,0,1-.13,5.28,8,8,0,0,1-4.93,4.83c-2.93,1.22-5.07,1.48-9.3-.91-.37.24-.34.68-.47,1a10.18,10.18,0,0,1-9.52,6.88,5.78,5.78,0,0,1-5.52-2.88c-5.8-9.29,1.77-14.33-.9-25.28-1.31-5.34-3.27-9.61-3.49-10.87a1.44,1.44,0,0,1,2.72-1c.41.86.77,1.75,1.1,2.64,2,5.29,4.79,11.61,2.82,19.67-.43,1.73-.72,3.5-1.09,5.24a10.68,10.68,0,0,0,0,4.14A4.55,4.55,0,0,0,33,157.9c3.86,1.23,5.37-1.15,6.79-2.62a3.42,3.42,0,0,0,.94-1.75,11.75,11.75,0,0,1,.75-2.26,1.51,1.51,0,0,1,2.43-.73c.63.41,1.21.89,1.82,1.33,3,2.2,6.23,1.37,8.63-.92,1.21-1.16,1.31-3.81.66-5.66a11.31,11.31,0,0,0-2.64-4.6,12.55,12.55,0,0,1-1.86-2.75c-9.57-16-10.16-23.11-13.71-37.29-1.9-7.6.13-11.33-2.31-15.64a5.55,5.55,0,0,0-6.82-1.91c-2.26,1.19-4.28,3.37-4.53,6a2,2,0,0,1-3.26,1.37,8.28,8.28,0,0,0-4.17-2.4c-4.12-1-7.67,3.28-5.28,8.39,1.53,3.27,2.47,2.61,7.86,8.36A9.11,9.11,0,0,1,20,107.25a3.7,3.7,0,0,1,.24.54A1.41,1.41,0,0,1,17.7,109c-3.48-5.9-9.35-6.5-11.06-13.62A8.6,8.6,0,0,1,13,84.84C15.68,84.16,18.13,85.44,20.61,86.71Z"/><path class="cls-2" d="M20.18,111.55a1.38,1.38,0,0,1,1.86.57,10.75,10.75,0,0,1,.88,1.68,1.42,1.42,0,0,1-2.48,1.38C20.05,114.63,18.84,112.21,20.18,111.55Z"/><path class="cls-2" d="M72.17,271.47c1.77-4.59,6.13-7.29,8.71-7.29,4,0,7.33,1.72,8.74,5.66,1.87,5.21,0,7.9,2,15.51.87,3.38,1.23,6.87,2.3,10.2,1.92,6,4.31,15.86,10.22,24a35.36,35.36,0,0,1,5.68,10.65,8.81,8.81,0,0,1-.13,5.28,8,8,0,0,1-4.93,4.83c-2.93,1.22-5.07,1.48-9.3-.91-.37.24-.34.68-.47,1a10.18,10.18,0,0,1-9.52,6.88,5.78,5.78,0,0,1-5.52-2.88c-5.8-9.29,1.77-14.33-.9-25.28-1.31-5.34-3.27-9.61-3.49-10.87a1.44,1.44,0,0,1,2.72-.95c.41.86.77,1.75,1.1,2.64,2,5.29,4.79,11.61,2.82,19.67-.43,1.73-.72,3.5-1.09,5.24a10.68,10.68,0,0,0,0,4.14,4.55,4.55,0,0,0,3.43,3.68c3.85,1.23,5.37-1.15,6.79-2.62a3.42,3.42,0,0,0,.94-1.75A11.75,11.75,0,0,1,93,336a1.51,1.51,0,0,1,2.43-.73c.63.41,1.21.89,1.82,1.33,3,2.2,6.23,1.37,8.63-.92,1.21-1.16,1.31-3.81.66-5.66a11.31,11.31,0,0,0-2.64-4.6,12.55,12.55,0,0,1-1.86-2.75c-9.57-16-10.17-23.11-13.71-37.29-1.9-7.6.13-11.33-2.31-15.64a5.55,5.55,0,0,0-6.82-1.91c-2.26,1.19-4.28,3.37-4.53,6a2,2,0,0,1-3.26,1.37,8.28,8.28,0,0,0-4.17-2.4c-4.12-1-7.68,3.28-5.28,8.39,1.53,3.27,2.47,2.61,7.86,8.36A9.11,9.11,0,0,1,71.56,292a5.22,5.22,0,0,1,.24.54,1.41,1.41,0,0,1-2.54,1.24c-3.48-5.9-9.35-6.5-11.06-13.62a8.6,8.6,0,0,1,6.31-10.57C67.24,268.92,69.69,270.2,72.17,271.47Z"/><path class="cls-2" d="M71.74,296.31a1.38,1.38,0,0,1,1.86.57,10.75,10.75,0,0,1,.88,1.68A1.42,1.42,0,0,1,72,299.94C71.61,299.39,70.4,297,71.74,296.31Z"/><path class="cls-2" d="M224.55,222.33c-1,3.44-4.17,6.31-8.13,4.82-3.65-1.38-3.54-3.32-9.06-4.47-2.57-.54-4.73,0-7-.64a9.66,9.66,0,0,1-6.68-7.54c-.69-4.18.56-8.37,4.71-9.69,1.42-.45,2.9-.73,4.3-1.23,6.21-2.22,4.39-8,10.52-10.72a6.74,6.74,0,0,1,6.72,1c2.43,2.23,2.17,6.08,1.73,9.09-.3,2-1.19,3.71-.39,5.64a65,65,0,0,0,2.84,5.89A8.4,8.4,0,0,1,224.55,222.33Z"/><path class="cls-2" d="M197.46,199a7.11,7.11,0,0,1-3.06-2.06,17,17,0,0,1-4.35-9.16c-.42-3.09.94-6.63,4-7.69,2.34-.82,4.38-.19,6.29,1.76,3,3.11,3.6,6.65,4.5,13,.3,2.11-.46,4.25-2.85,4.71A9.19,9.19,0,0,1,197.46,199Z"/><path class="cls-2" d="M218.32,176.14c2.05,3.66,1,8.07-.12,11.93a6.2,6.2,0,0,1-.85,2c-2.51,3.45-9.32.88-10.84-5.37a12.05,12.05,0,0,1,1.75-10.36C210.51,171.43,216.05,172.09,218.32,176.14Z"/><path class="cls-2" d="M240.15,205.94a18.31,18.31,0,0,1-1.35,2.55c-4.44,6.65-17,1.08-13.9-5.38,2.07-4.28,5.92-7.13,11.09-6.93,4,.15,5.57,3.53,4.82,7.3A13.14,13.14,0,0,1,240.15,205.94Z"/><path class="cls-2" d="M222.54,193c-1.83-2.27.4-6,1.91-8.25s4.33-4.33,7.11-4.57c3.61-.3,7,2.75,6.09,6.65a14.34,14.34,0,0,1-2.67,5.08,9,9,0,0,1-7.83,3.93C225.62,195.76,223.69,194.41,222.54,193Z"/><path class="cls-2" d="M349.51,384.81c-1,3.44-4.17,6.31-8.12,4.82-3.65-1.37-3.55-3.32-9.06-4.47-2.57-.54-4.73,0-7-.64a9.66,9.66,0,0,1-6.68-7.53c-.69-4.19.56-8.38,4.71-9.7,1.42-.45,2.9-.72,4.29-1.22,6.22-2.23,4.4-8,10.52-10.73a6.78,6.78,0,0,1,6.73,1c2.43,2.23,2.17,6.08,1.72,9.1-.29,2-1.18,3.7-.38,5.63a61.24,61.24,0,0,0,2.84,5.89A8.37,8.37,0,0,1,349.51,384.81Z"/><path class="cls-2" d="M322.43,361.47a7.18,7.18,0,0,1-3.06-2.05,17,17,0,0,1-4.35-9.16c-.42-3.1.93-6.64,4-7.7,2.34-.82,4.39-.19,6.3,1.77,3,3.1,3.6,6.64,4.5,13,.3,2.12-.47,4.25-2.85,4.71A9.07,9.07,0,0,1,322.43,361.47Z"/><path class="cls-2" d="M343.28,338.62c2.06,3.66,1.05,8.07-.11,11.93a6.2,6.2,0,0,1-.85,2c-2.51,3.46-9.33.88-10.84-5.36a12,12,0,0,1,1.75-10.36C335.48,333.91,341,334.58,343.28,338.62Z"/><path class="cls-2" d="M362.45,358.89a6.28,6.28,0,0,0-1.49-.23,11.52,11.52,0,0,0-11.09,6.93c-2.86,5.9,7.4,11.06,12.58,6.84Z"/><path class="cls-2" d="M362.45,346.23a5.81,5.81,0,0,0-5.92-3.56c-2.78.23-5.66,2.41-7.11,4.56s-3.75,6-1.91,8.25c1.14,1.41,3.08,2.76,4.61,2.84a8.92,8.92,0,0,0,7.82-3.93,15.37,15.37,0,0,0,2.51-4.46Z"/><path class="cls-2" d="M41.55,369.56c-1,3.44-4.17,6.31-8.13,4.82-3.64-1.38-3.54-3.32-9-4.47-2.57-.54-4.73,0-7-.64a9.66,9.66,0,0,1-6.68-7.54c-.69-4.18.56-8.37,4.71-9.69,1.42-.45,2.89-.73,4.29-1.23,6.22-2.22,4.4-8,10.52-10.72a6.76,6.76,0,0,1,6.73,1c2.43,2.23,2.17,6.08,1.72,9.09-.29,2-1.18,3.71-.38,5.64a62.4,62.4,0,0,0,2.84,5.89A8.37,8.37,0,0,1,41.55,369.56Z"/><path class="cls-2" d="M14.47,346.22a7.11,7.11,0,0,1-3.06-2.06A17,17,0,0,1,7.06,335c-.42-3.1.93-6.64,4-7.7,2.34-.82,4.39-.19,6.29,1.77,3,3.1,3.61,6.64,4.51,13,.3,2.12-.47,4.25-2.86,4.71A9.15,9.15,0,0,1,14.47,346.22Z"/><path class="cls-2" d="M57.15,353.17a16.76,16.76,0,0,1-1.34,2.55c-4.44,6.65-17,1.08-13.9-5.38,2.07-4.28,5.92-7.13,11.09-6.93,4,.15,5.57,3.53,4.82,7.31A12.54,12.54,0,0,1,57.15,353.17Z"/><path class="cls-2" d="M39.55,340.23c-1.84-2.27.39-6,1.91-8.25s4.33-4.33,7.11-4.57c3.61-.3,7,2.75,6.09,6.65A14.36,14.36,0,0,1,52,339.14a8.92,8.92,0,0,1-7.82,3.93C42.63,343,40.69,341.64,39.55,340.23Z"/><path class="cls-2" d="M362.45,72.63a6.92,6.92,0,0,0-5.89-.4C350.43,75,352.25,80.73,346,83c-1.4.5-2.88.78-4.3,1.23-4.15,1.32-5.4,5.51-4.71,9.69a9.66,9.66,0,0,0,6.68,7.54c2.3.61,4.46.1,7,.64,5.51,1.15,5.41,3.09,9.06,4.47a5.86,5.86,0,0,0,2.65.37Z"/><path class="cls-2" d="M340.84,78.36a7.11,7.11,0,0,1-3.06-2.06,17,17,0,0,1-4.35-9.15c-.42-3.1.94-6.64,3.95-7.7,2.34-.82,4.39-.19,6.3,1.77,3,3.1,3.6,6.64,4.5,13,.3,2.12-.47,4.25-2.85,4.71A9.19,9.19,0,0,1,340.84,78.36Z"/><path class="cls-2" d="M362.45,57.29a8.91,8.91,0,0,0-.76-1.78c-2.26-4-7.8-4.71-10.05-1.8a12.05,12.05,0,0,0-1.75,10.36c1.51,6.25,8.33,8.82,10.84,5.37a6.2,6.2,0,0,0,.85-2c.32-1.07.63-2.19.87-3.31Z"/><path class="cls-2" d="M161.7,285.72c-1,3.43-4.17,6.3-8.13,4.81-3.65-1.37-3.54-3.31-9.06-4.47-2.57-.54-4.73,0-7-.63a9.65,9.65,0,0,1-6.67-7.54c-.7-4.19.55-8.38,4.7-9.69,1.42-.45,2.9-.73,4.3-1.23,6.21-2.22,4.39-8,10.52-10.72a6.76,6.76,0,0,1,6.72,1c2.43,2.24,2.18,6.09,1.73,9.1-.3,2-1.19,3.7-.38,5.64a62.14,62.14,0,0,0,2.83,5.88A8.42,8.42,0,0,1,161.7,285.72Z"/><path class="cls-2" d="M134.61,262.38a7.26,7.26,0,0,1-3.06-2.06,17,17,0,0,1-4.35-9.16c-.42-3.09.94-6.63,4-7.69,2.34-.83,4.39-.2,6.29,1.76,3,3.11,3.6,6.65,4.5,13,.3,2.11-.46,4.24-2.85,4.71A9.19,9.19,0,0,1,134.61,262.38Z"/><path class="cls-2" d="M155.47,239.53c2.05,3.66,1,8.07-.12,11.92a6.3,6.3,0,0,1-.84,2c-2.52,3.46-9.33.89-10.85-5.36a12.09,12.09,0,0,1,1.75-10.36C147.66,234.82,153.2,235.48,155.47,239.53Z"/><path class="cls-2" d="M177.3,269.32a17.87,17.87,0,0,1-1.35,2.56c-4.44,6.65-17,1.08-13.9-5.38,2.07-4.28,5.92-7.13,11.09-6.93,4,.15,5.58,3.52,4.83,7.3A13.65,13.65,0,0,1,177.3,269.32Z"/><path class="cls-2" d="M159.7,256.38c-1.84-2.27.39-6,1.9-8.24s4.33-4.34,7.12-4.57c3.6-.3,7,2.74,6.09,6.64a14.32,14.32,0,0,1-2.68,5.09,8.94,8.94,0,0,1-7.83,3.93C162.77,259.14,160.84,257.79,159.7,256.38Z"/><path class="cls-2" d="M178.31,453.11c-1,3.43-4.17,6.3-8.13,4.81-3.64-1.37-3.54-3.31-9.06-4.47-2.57-.54-4.73,0-7-.63a9.65,9.65,0,0,1-6.67-7.54c-.7-4.19.55-8.38,4.7-9.69,1.42-.45,2.9-.73,4.3-1.23,6.21-2.22,4.4-8,10.52-10.72a6.73,6.73,0,0,1,6.72,1c2.43,2.24,2.18,6.09,1.73,9.1-.3,2-1.19,3.7-.38,5.64a62.14,62.14,0,0,0,2.83,5.88A8.37,8.37,0,0,1,178.31,453.11Z"/><path class="cls-2" d="M151.22,429.77a7.26,7.26,0,0,1-3.06-2.06,17,17,0,0,1-4.34-9.16c-.42-3.09.93-6.63,4-7.69,2.34-.83,4.39-.2,6.29,1.76,3,3.11,3.6,6.65,4.5,13,.3,2.11-.46,4.24-2.85,4.71A9.19,9.19,0,0,1,151.22,429.77Z"/><path class="cls-2" d="M172.08,406.92c2,3.66,1,8.07-.12,11.92a6.3,6.3,0,0,1-.84,2c-2.52,3.46-9.33.89-10.85-5.36A12.12,12.12,0,0,1,162,405.12C164.27,402.21,169.81,402.87,172.08,406.92Z"/><path class="cls-2" d="M193.91,436.71a17.87,17.87,0,0,1-1.35,2.56c-4.44,6.65-17,1.08-13.9-5.38,2.07-4.28,5.92-7.13,11.09-6.93,4,.15,5.58,3.52,4.83,7.3A13.88,13.88,0,0,1,193.91,436.71Z"/><path class="cls-2" d="M176.31,423.77c-1.84-2.27.39-6,1.91-8.24s4.33-4.34,7.11-4.57c3.6-.3,7,2.74,6.09,6.64a14.32,14.32,0,0,1-2.68,5.09,8.94,8.94,0,0,1-7.83,3.93C179.38,426.53,177.45,425.18,176.31,423.77Z"/><path class="cls-2" d="M362.45,170c-1.77-.8-2.41-2.53-3.6-4-1.89-2.4-4.52-5.22-7.8-5a6.76,6.76,0,0,0-5.34,4.21c-2.21,6.34,3.23,9,.59,15-.6,1.36-1.41,2.63-2.05,4-1.89,3.92.3,7.71,3.82,10.07a9.64,9.64,0,0,0,10.06.31c1.69-1.06,2.75-2.58,4.32-3.93Z"/><path class="cls-2" d="M339.4,180.82a7.34,7.34,0,0,1-3.6.82,17,17,0,0,1-9.64-3.12c-2.54-1.81-4.19-5.23-2.89-8.15,1-2.27,2.87-3.33,5.6-3.37,4.33-.08,7.3,1.93,12.55,5.64,1.75,1.23,2.77,3.25,1.47,5.3A9.21,9.21,0,0,1,339.4,180.82Z"/><path class="cls-2" d="M337.07,150c4.07,1,6.59,4.77,8.6,8.26a6.39,6.39,0,0,1,.87,2c.79,4.2-5.75,7.41-11.33,4.23a12.06,12.06,0,0,1-6.34-8.38C328.29,152.42,332.57,148.83,337.07,150Z"/><path class="cls-2" d="M362.45,152.34a11.62,11.62,0,0,0-1.25,11.31,4.69,4.69,0,0,0,1.25,1.85Z"/><path class="cls-2" d="M352.23,158.43c-2.91-.22-4.09-4.39-4.69-7s-.18-6.13,1.55-8.32c2.26-2.83,6.81-3.23,9,.12a14.38,14.38,0,0,1,1.87,5.44,8.93,8.93,0,0,1-2.51,8.39C356.35,158.08,354,158.57,352.23,158.43Z"/><path class="cls-2" d="M310.06,452.25c1.82,3.07,1.73,7.36-2.07,9.23-3.5,1.71-4.84.3-9.46,3.53-2.15,1.5-3.27,3.43-5.28,4.69a9.66,9.66,0,0,1-10.06-.3c-3.52-2.37-5.72-6.15-3.83-10.08.65-1.34,1.46-2.61,2.06-4,2.64-6.05-2.81-8.68-.59-15a6.73,6.73,0,0,1,5.33-4.21c3.29-.24,5.92,2.58,7.8,5,1.25,1.58,1.88,3.4,3.84,4.14a61.82,61.82,0,0,0,6.23,2A8.37,8.37,0,0,1,310.06,452.25Z"/><path class="cls-2" d="M274.51,456a7.2,7.2,0,0,1-3.59.82,17,17,0,0,1-9.65-3.11c-2.53-1.82-4.18-5.23-2.88-8.16,1-2.27,2.87-3.33,5.59-3.37,4.34-.08,7.31,1.93,12.56,5.64,1.74,1.23,2.77,3.25,1.47,5.31A9.23,9.23,0,0,1,274.51,456Z"/><path class="cls-2" d="M272.18,425.13c4.08,1,6.59,4.77,8.6,8.26a6.19,6.19,0,0,1,.88,2c.79,4.21-5.75,7.41-11.34,4.23a12.09,12.09,0,0,1-6.34-8.38C263.41,427.59,267.69,424,272.18,425.13Z"/><path class="cls-2" d="M308.83,429.65a17.22,17.22,0,0,1,.93,2.73c1.79,7.79-10.89,13.15-13.44,6.44A11.53,11.53,0,0,1,298.88,426c2.87-2.83,6.39-1.65,8.62,1.49A13.71,13.71,0,0,1,308.83,429.65Z"/><path class="cls-2" d="M287.35,433.6c-2.91-.22-4.09-4.39-4.69-7s-.19-6.13,1.55-8.31c2.25-2.84,6.8-3.24,9,.11a14.54,14.54,0,0,1,1.86,5.44,9,9,0,0,1-2.51,8.4C291.46,433.25,289.16,433.74,287.35,433.6Z"/><path class="cls-2" d="M305.16,290.22c1.83,3.08,1.73,7.37-2.07,9.23-3.5,1.71-4.84.31-9.46,3.53-2.15,1.51-3.26,3.43-5.28,4.69a9.64,9.64,0,0,1-10.06-.3c-3.52-2.37-5.71-6.15-3.82-10.08.64-1.34,1.45-2.61,2-4,2.64-6.05-2.8-8.68-.59-15a6.75,6.75,0,0,1,5.33-4.22c3.29-.24,5.92,2.59,7.8,5,1.25,1.58,1.89,3.4,3.84,4.14a62.63,62.63,0,0,0,6.23,2A8.37,8.37,0,0,1,305.16,290.22Z"/><path class="cls-2" d="M269.61,294a7.2,7.2,0,0,1-3.59.82,17,17,0,0,1-9.64-3.11c-2.54-1.82-4.19-5.23-2.89-8.16,1-2.27,2.87-3.33,5.6-3.37,4.33-.07,7.3,1.93,12.55,5.64,1.74,1.23,2.77,3.25,1.47,5.31A9.14,9.14,0,0,1,269.61,294Z"/><path class="cls-2" d="M267.29,263.1c4.07,1,6.59,4.77,8.59,8.26a6.24,6.24,0,0,1,.88,2c.79,4.2-5.75,7.4-11.34,4.22a12.05,12.05,0,0,1-6.33-8.38C258.51,265.56,262.79,262,267.29,263.1Z"/><path class="cls-2" d="M303.93,267.62a17.25,17.25,0,0,1,.94,2.73c1.79,7.8-10.9,13.15-13.45,6.44A11.53,11.53,0,0,1,294,264c2.87-2.83,6.39-1.64,8.63,1.49A13,13,0,0,1,303.93,267.62Z"/><path class="cls-2" d="M282.45,271.57c-2.91-.21-4.09-4.39-4.69-7s-.19-6.13,1.55-8.31c2.25-2.84,6.81-3.23,9,.11a14.25,14.25,0,0,1,1.86,5.44,8.94,8.94,0,0,1-2.5,8.4A7.59,7.59,0,0,1,282.45,271.57Z"/><path class="cls-2" d="M281.82,137.76c.74,2.27,0,5.05-2.71,5.69-2.53.6-3.19-.51-6.68.9-1.62.66-2.63,1.75-4.13,2.27a6.45,6.45,0,0,1-6.5-1.69c-1.94-2.06-2.8-4.85-1-7.12.62-.78,1.33-1.48,1.92-2.28,2.62-3.54-.54-6.06,1.84-9.86a4.5,4.5,0,0,1,4.09-2c2.18.34,3.47,2.56,4.34,4.4.58,1.21.72,2.49,1.89,3.26a41.17,41.17,0,0,0,3.76,2.21A5.58,5.58,0,0,1,281.82,137.76Z"/><path class="cls-2" d="M258.15,134.92a4.77,4.77,0,0,1-2.46,0,11.41,11.41,0,0,1-5.82-3.45c-1.38-1.56-2-4-.67-5.74a3.75,3.75,0,0,1,4.14-1.36c2.83.59,4.47,2.34,7.34,5.53.95,1.06,1.32,2.52.17,3.67A6.11,6.11,0,0,1,258.15,134.92Z"/><path class="cls-2" d="M261.2,114.5c2.5,1.26,3.58,4.08,4.37,6.65a4.59,4.59,0,0,1,.28,1.42c-.11,2.85-4.84,4-8,1.07a8,8,0,0,1-2.89-6.39C255.13,114.8,258.44,113.1,261.2,114.5Z"/><path class="cls-2" d="M284.37,122.87a11.27,11.27,0,0,1,.2,1.92c0,5.33-9,6.94-9.7,2.2a7.69,7.69,0,0,1,3.57-8c2.29-1.42,4.4-.12,5.39,2.25A10,10,0,0,1,284.37,122.87Z"/><path class="cls-2" d="M269.81,122.26c-1.86-.57-2-3.46-2-5.28a7.1,7.1,0,0,1,2.24-5.17,3.69,3.69,0,0,1,5.84,1.41,9.61,9.61,0,0,1,.41,3.81,6,6,0,0,1-2.87,5.09A5,5,0,0,1,269.81,122.26Z"/><path class="cls-2" d="M362.45,226.35c-2.32,3.77.79,6.28-1.81,9.81-.59.8-1.31,1.51-1.93,2.28-1.81,2.28-.94,5.06,1,7.12a6.44,6.44,0,0,0,2.74,1.68Z"/><path class="cls-2" d="M356.05,235.56a4.77,4.77,0,0,1-2.46,0,11.29,11.29,0,0,1-5.81-3.46c-1.38-1.55-1.95-4-.67-5.73a3.75,3.75,0,0,1,4.14-1.37c2.83.6,4.46,2.34,7.33,5.53.95,1.07,1.32,2.53.17,3.68A6.21,6.21,0,0,1,356.05,235.56Z"/><path class="cls-2" d="M362.45,219a7.59,7.59,0,0,0-3.35-3.84c-2.76-1.4-6.07.3-6.23,2.74a8.09,8.09,0,0,0,2.88,6.4,5.79,5.79,0,0,0,6.7,1Z"/><path class="cls-2" d="M68.12,415.61c.74,2.27,0,5.05-2.71,5.69-2.53.6-3.19-.51-6.68.9-1.62.66-2.63,1.75-4.13,2.27a6.45,6.45,0,0,1-6.5-1.69c-1.94-2.06-2.8-4.85-1-7.12.62-.78,1.33-1.48,1.92-2.28,2.62-3.55-.54-6.06,1.84-9.86A4.49,4.49,0,0,1,55,401.57c2.18.33,3.47,2.56,4.34,4.4.58,1.21.72,2.49,1.89,3.26a42.39,42.39,0,0,0,3.75,2.21A5.57,5.57,0,0,1,68.12,415.61Z"/><path class="cls-2" d="M44.44,412.77a4.77,4.77,0,0,1-2.46,0,11.38,11.38,0,0,1-5.81-3.45c-1.38-1.56-2-4-.67-5.74a3.75,3.75,0,0,1,4.14-1.36c2.83.59,4.47,2.34,7.33,5.53,1,1.06,1.33,2.52.18,3.67A6.14,6.14,0,0,1,44.44,412.77Z"/><path class="cls-2" d="M47.5,392.35c2.5,1.26,3.58,4.08,4.37,6.65a4.59,4.59,0,0,1,.28,1.42c-.11,2.85-4.84,4-8,1.07a8.07,8.07,0,0,1-2.88-6.39C41.43,392.65,44.74,391,47.5,392.35Z"/><path class="cls-2" d="M70.67,400.72a11.27,11.27,0,0,1,.2,1.92c0,5.33-9,6.94-9.7,2.2a7.69,7.69,0,0,1,3.57-8c2.29-1.42,4.4-.12,5.39,2.25A10,10,0,0,1,70.67,400.72Z"/><path class="cls-2" d="M56.11,400.11c-1.86-.57-2-3.46-2-5.28a7.1,7.1,0,0,1,2.24-5.17,3.69,3.69,0,0,1,5.84,1.41,9.61,9.61,0,0,1,.41,3.81A6,6,0,0,1,59.72,400,5,5,0,0,1,56.11,400.11Z"/><path class="cls-2" d="M34.7,512.6a10.85,10.85,0,0,1,1.56-1.54c3-2.3,3.91-1.41,6.18-2.67,2.47-1.36,2.39-4.22,1.07-6.21A5.57,5.57,0,0,0,39.32,499a39.44,39.44,0,0,1-4.21-1.11c-1.33-.43-1.82-1.62-2.7-2.63-1.34-1.53-3.18-3.33-5.37-3.06a4.53,4.53,0,0,0-3.41,3c-1.26,4.29,2.46,5.86.9,10-.35.93-.85,1.8-1.24,2.72A4.52,4.52,0,0,0,24,512.6Z"/><path class="cls-2" d="M20,505.85a4.86,4.86,0,0,1-2.37.66,11.28,11.28,0,0,1-6.53-1.75c-1.75-1.13-3-3.35-2.2-5.34A3.74,3.74,0,0,1,12.47,497c2.88-.19,4.93,1,8.55,3.34,1.21.76,2,2.07,1.16,3.49A6.22,6.22,0,0,1,20,505.85Z"/><path class="cls-2" d="M17.36,485.36c2.75.54,4.55,3,6,5.22a4.4,4.4,0,0,1,.65,1.3c.67,2.77-3.59,5.12-7.42,3.19a8,8,0,0,1-4.5-5.38C11.59,487.29,14.33,484.76,17.36,485.36Z"/><path class="cls-2" d="M41.93,487.16a11.16,11.16,0,0,1,.72,1.79c1.45,5.13-6.82,9.12-8.75,4.74a7.71,7.71,0,0,1,1.28-8.64c1.82-2,4.2-1.31,5.79.71A8.46,8.46,0,0,1,41.93,487.16Z"/><path class="cls-2" d="M27.75,490.51c-1.95-.05-2.87-2.8-3.36-4.54a7.1,7.1,0,0,1,.75-5.59,3.7,3.7,0,0,1,6-.22,9.52,9.52,0,0,1,1.42,3.56,5.94,5.94,0,0,1-1.39,5.68A5,5,0,0,1,27.75,490.51Z"/><path class="cls-2" d="M225.71,268.08c.74,2.27,0,5.05-2.71,5.69-2.53.6-3.19-.51-6.68.9-1.62.66-2.63,1.75-4.13,2.27a6.45,6.45,0,0,1-6.5-1.69c-1.94-2.06-2.8-4.85-1-7.12.62-.78,1.33-1.48,1.92-2.28,2.62-3.55-.54-6.07,1.84-9.86a4.5,4.5,0,0,1,4.09-2c2.18.33,3.47,2.56,4.34,4.4.58,1.21.72,2.49,1.89,3.26a38.91,38.91,0,0,0,3.76,2.2A5.6,5.6,0,0,1,225.71,268.08Z"/><path class="cls-2" d="M202,265.24a4.77,4.77,0,0,1-2.46,0,11.41,11.41,0,0,1-5.82-3.45c-1.38-1.56-1.95-4-.67-5.74a3.75,3.75,0,0,1,4.14-1.36c2.83.59,4.47,2.34,7.34,5.53,1,1.06,1.32,2.52.17,3.67A6.11,6.11,0,0,1,202,265.24Z"/><path class="cls-2" d="M205.09,244.82c2.5,1.26,3.58,4.08,4.37,6.65a4.59,4.59,0,0,1,.28,1.42c-.11,2.85-4.84,4-8,1.07a8.06,8.06,0,0,1-2.89-6.39C199,245.12,202.33,243.42,205.09,244.82Z"/><path class="cls-2" d="M228.26,253.19a11.27,11.27,0,0,1,.2,1.92c0,5.33-9,6.94-9.7,2.19a7.67,7.67,0,0,1,3.57-8c2.29-1.42,4.4-.13,5.39,2.25A10,10,0,0,1,228.26,253.19Z"/><path class="cls-2" d="M213.7,252.58c-1.86-.57-2-3.46-2-5.28a7.09,7.09,0,0,1,2.24-5.17,3.69,3.69,0,0,1,5.84,1.41,9.61,9.61,0,0,1,.41,3.81,6,6,0,0,1-2.87,5.09A5,5,0,0,1,213.7,252.58Z"/><path class="cls-2" d="M154.55,328.57c.73,2.27,0,5.05-2.71,5.7-2.53.6-3.2-.52-6.68.89-1.62.66-2.63,1.75-4.13,2.27a6.43,6.43,0,0,1-6.5-1.69c-1.94-2.06-2.81-4.84-1-7.12.62-.77,1.34-1.48,1.93-2.28,2.61-3.54-.54-6.06,1.84-9.85a4.49,4.49,0,0,1,4.09-1.95c2.17.33,3.47,2.56,4.34,4.39.57,1.22.72,2.49,1.88,3.26a42.57,42.57,0,0,0,3.76,2.21A5.59,5.59,0,0,1,154.55,328.57Z"/><path class="cls-2" d="M130.87,325.74a5,5,0,0,1-2.46,0,11.35,11.35,0,0,1-5.81-3.46c-1.38-1.56-1.95-4-.67-5.73a3.75,3.75,0,0,1,4.14-1.37c2.83.6,4.46,2.34,7.33,5.53.95,1.06,1.32,2.53.17,3.67A6.12,6.12,0,0,1,130.87,325.74Z"/><path class="cls-2" d="M133.92,305.31c2.5,1.27,3.58,4.08,4.37,6.65a4.09,4.09,0,0,1,.28,1.43c-.11,2.84-4.84,4-8,1.06a8.05,8.05,0,0,1-2.88-6.39C127.85,305.61,131.17,303.92,133.92,305.31Z"/><path class="cls-2" d="M157.09,313.69a11.06,11.06,0,0,1,.21,1.91c0,5.34-9,6.94-9.7,2.2a7.7,7.7,0,0,1,3.56-8c2.29-1.41,4.4-.12,5.39,2.25A8.24,8.24,0,0,1,157.09,313.69Z"/><path class="cls-2" d="M142.53,313.07c-1.86-.57-2-3.46-2-5.27a7.14,7.14,0,0,1,2.25-5.18,3.69,3.69,0,0,1,5.84,1.41,9.68,9.68,0,0,1,.41,3.82,6,6,0,0,1-2.88,5.08A5,5,0,0,1,142.53,313.07Z"/><path class="cls-2" d="M353,497c.73,2.27,0,5-2.72,5.69-2.53.6-3.19-.52-6.67.9-1.63.66-2.63,1.74-4.13,2.26a6.43,6.43,0,0,1-6.5-1.69c-1.94-2.06-2.81-4.84-1-7.12.62-.77,1.33-1.48,1.92-2.28,2.62-3.54-.53-6.06,1.84-9.85a4.52,4.52,0,0,1,4.1-2c2.17.33,3.46,2.56,4.33,4.39.58,1.22.73,2.49,1.89,3.27a42.48,42.48,0,0,0,3.76,2.2A5.61,5.61,0,0,1,353,497Z"/><path class="cls-2" d="M329.33,494.16a4.77,4.77,0,0,1-2.46,0,11.29,11.29,0,0,1-5.81-3.46c-1.39-1.55-1.95-4-.68-5.73a3.76,3.76,0,0,1,4.15-1.37c2.82.6,4.46,2.34,7.33,5.54.95,1.06,1.32,2.52.17,3.67A6.21,6.21,0,0,1,329.33,494.16Z"/><path class="cls-2" d="M332.38,473.74c2.5,1.26,3.58,4.07,4.37,6.64a4.09,4.09,0,0,1,.28,1.43c-.11,2.85-4.84,4-8,1.07a8.05,8.05,0,0,1-2.88-6.4C326.31,474,329.62,472.34,332.38,473.74Z"/><path class="cls-2" d="M355.55,482.11a11.16,11.16,0,0,1,.2,1.92c0,5.33-9,6.93-9.69,2.19a7.69,7.69,0,0,1,3.56-8c2.29-1.41,4.4-.12,5.39,2.25A8.24,8.24,0,0,1,355.55,482.11Z"/><path class="cls-2" d="M341,481.5c-1.86-.58-2-3.47-2-5.28a7.13,7.13,0,0,1,2.24-5.18,3.7,3.7,0,0,1,5.85,1.41,9.49,9.49,0,0,1,.4,3.82,6,6,0,0,1-2.87,5.09A5.1,5.1,0,0,1,341,481.5Z"/><path class="cls-2" d="M50.39,63.22c-.54,2.32-2.58,4.34-5.26,3.47-2.47-.8-2.47-2.1-6.18-2.69-1.73-.28-3.15.13-4.71-.2A6.44,6.44,0,0,1,29.56,59c-.6-2.77.1-5.6,2.82-6.61.94-.34,1.91-.58,2.83-1,4.07-1.68,2.67-5.47,6.67-7.49a4.51,4.51,0,0,1,4.51.45c1.69,1.42,1.64,4,1.44,6-.13,1.34-.67,2.51-.07,3.77A39.4,39.4,0,0,0,49.83,58,5.61,5.61,0,0,1,50.39,63.22Z"/><path class="cls-2" d="M31.6,48.53a4.76,4.76,0,0,1-2.11-1.27,11.32,11.32,0,0,1-3.18-6c-.38-2,.41-4.45,2.39-5.25A3.76,3.76,0,0,1,33,37c2.11,2,2.61,4.32,3.41,8.53.27,1.4-.17,2.85-1.75,3.23A6,6,0,0,1,31.6,48.53Z"/><path class="cls-2" d="M44.77,32.64c1.49,2.37,1,5.34.3,8a4.13,4.13,0,0,1-.5,1.36c-1.56,2.38-6.19.89-7.4-3.23a8.08,8.08,0,0,1,.84-7C39.42,29.75,43.13,30,44.77,32.64Z"/><path class="cls-2" d="M60.27,51.8a11.6,11.6,0,0,1-.82,1.75C56.7,58.12,48.13,54.81,50,50.4a7.68,7.68,0,0,1,7.17-5c2.69,0,3.82,2.17,3.44,4.72A8.69,8.69,0,0,1,60.27,51.8Z"/><path class="cls-2" d="M48.13,43.74c-1.3-1.46.07-4,1-5.56a7.09,7.09,0,0,1,4.6-3.27A3.7,3.7,0,0,1,58,39.14a9.73,9.73,0,0,1-1.62,3.48,6,6,0,0,1-5.09,2.87A5,5,0,0,1,48.13,43.74Z"/><path class="cls-2" d="M112.69,249.8c-.32,2.36-2.16,4.56-4.91,3.95-2.54-.57-2.65-1.86-6.4-2.1-1.75-.11-3.13.43-4.71.24a6.44,6.44,0,0,1-5.12-4.35c-.85-2.7-.42-5.58,2.2-6.84.9-.43,1.85-.76,2.72-1.22,3.9-2,2.15-5.69,5.94-8.07a4.52,4.52,0,0,1,4.54,0c1.81,1.25,2,3.82,2,5.85,0,1.34-.43,2.56.28,3.76a42.36,42.36,0,0,0,2.43,3.62A5.57,5.57,0,0,1,112.69,249.8Z"/><path class="cls-2" d="M92.61,236.94a4.85,4.85,0,0,1-2.22-1.07,11.44,11.44,0,0,1-3.73-5.64c-.57-2,0-4.48,1.89-5.46a3.75,3.75,0,0,1,4.32.57c2.29,1.77,3,4.06,4.2,8.18.4,1.37.09,2.85-1.44,3.38A6.17,6.17,0,0,1,92.61,236.94Z"/><path class="cls-2" d="M104.23,219.88c1.71,2.23,1.46,5.23,1,7.89a4.1,4.1,0,0,1-.37,1.4c-1.34,2.52-6.08,1.46-7.67-2.52a8.07,8.07,0,0,1,.18-7C98.64,217.51,102.36,217.42,104.23,219.88Z"/><path class="cls-2" d="M121.46,237.51a12.24,12.24,0,0,1-.65,1.81c-2.31,4.81-11.15,2.32-9.69-2.25a7.68,7.68,0,0,1,6.67-5.62c2.68-.28,4,1.81,3.88,4.37A8.78,8.78,0,0,1,121.46,237.51Z"/><path class="cls-2" d="M108.61,230.61c-1.42-1.32-.3-4,.49-5.62a7.09,7.09,0,0,1,4.27-3.69,3.69,3.69,0,0,1,4.64,3.82,9.6,9.6,0,0,1-1.29,3.61,6,6,0,0,1-4.8,3.33A5,5,0,0,1,108.61,230.61Z"/><path class="cls-2" d="M132.11,199.12c.91,2.2.44,5-2.25,5.89-2.47.79-3.22-.27-6.59,1.42-1.56.79-2.48,1.95-3.93,2.59a6.46,6.46,0,0,1-6.62-1.17c-2.09-1.9-3.18-4.61-1.55-7,.55-.82,1.21-1.58,1.73-2.43,2.33-3.74-1-6,1.06-10a4.52,4.52,0,0,1,3.93-2.27c2.19.16,3.65,2.28,4.67,4,.67,1.17.91,2.43,2.13,3.11s2.58,1.32,3.92,1.9A5.56,5.56,0,0,1,132.11,199.12Z"/><path class="cls-2" d="M108.28,198.16a4.76,4.76,0,0,1-2.45.2,11.35,11.35,0,0,1-6.06-3c-1.5-1.44-2.27-3.85-1.13-5.66a3.75,3.75,0,0,1,4-1.69c2.87.37,4.64,2,7.75,4.94,1,1,1.52,2.41.46,3.64A6,6,0,0,1,108.28,198.16Z"/><path class="cls-2" d="M109.71,177.56c2.6,1.07,3.9,3.79,4.89,6.28a4.29,4.29,0,0,1,.38,1.4c.12,2.85-4.5,4.34-7.89,1.7a8.06,8.06,0,0,1-3.37-6.14C103.68,178.34,106.85,176.39,109.71,177.56Z"/><path class="cls-2" d="M133.47,184.08a11.9,11.9,0,0,1,.36,1.89c.43,5.32-8.46,7.63-9.5,3a7.68,7.68,0,0,1,2.93-8.23c2.16-1.59,4.37-.47,5.55,1.82A9.36,9.36,0,0,1,133.47,184.08Z"/><path class="cls-2" d="M118.91,184.62c-1.9-.43-2.28-3.3-2.42-5.1a7.11,7.11,0,0,1,1.83-5.34,3.69,3.69,0,0,1,5.93.94,9.54,9.54,0,0,1,.71,3.77,6,6,0,0,1-2.46,5.3A5.08,5.08,0,0,1,118.91,184.62Z"/><path class="cls-2" d="M176.3,117.6c.73,2.27,0,5.05-2.72,5.69-2.52.6-3.19-.51-6.67.9-1.63.66-2.63,1.75-4.13,2.27a6.45,6.45,0,0,1-6.5-1.69c-1.94-2.06-2.81-4.85-1-7.12.62-.78,1.34-1.48,1.92-2.28,2.62-3.55-.53-6.07,1.84-9.86a4.52,4.52,0,0,1,4.1-2c2.17.33,3.46,2.56,4.34,4.4.57,1.21.72,2.49,1.88,3.26a40.15,40.15,0,0,0,3.76,2.2A5.63,5.63,0,0,1,176.3,117.6Z"/><path class="cls-2" d="M152.62,114.76a4.77,4.77,0,0,1-2.46,0,11.34,11.34,0,0,1-5.81-3.45c-1.39-1.56-1.95-4-.68-5.74a3.76,3.76,0,0,1,4.15-1.36c2.82.59,4.46,2.34,7.33,5.53.95,1.06,1.32,2.52.17,3.67A6.11,6.11,0,0,1,152.62,114.76Z"/><path class="cls-2" d="M155.67,94.34c2.5,1.26,3.58,4.08,4.37,6.65a4.08,4.08,0,0,1,.28,1.42c-.11,2.85-4.84,4-8,1.07a8,8,0,0,1-2.88-6.39C149.6,94.64,152.91,92.94,155.67,94.34Z"/><path class="cls-2" d="M178.84,102.71a11.27,11.27,0,0,1,.2,1.92c0,5.33-9,6.94-9.69,2.2a7.67,7.67,0,0,1,3.56-8c2.29-1.42,4.4-.13,5.39,2.25A8.37,8.37,0,0,1,178.84,102.71Z"/><path class="cls-2" d="M164.28,102.1c-1.86-.57-2-3.46-2-5.28a7.1,7.1,0,0,1,2.24-5.17,3.7,3.7,0,0,1,5.85,1.41,9.43,9.43,0,0,1,.4,3.81,6,6,0,0,1-2.87,5.09A5,5,0,0,1,164.28,102.1Z"/><path class="cls-2" d="M362.45,24.46c-.89.33-1.83.54-2.73.86-2.74.95-3.5,3.77-3,6.54a6.44,6.44,0,0,0,4.59,4.91,6.16,6.16,0,0,0,1.11.15Z"/><path class="cls-2" d="M362.45,12.7A8.3,8.3,0,0,0,360.6,10a3.75,3.75,0,0,0-4.23-1.06c-2,.76-2.83,3.15-2.5,5.2a11.31,11.31,0,0,0,3.07,6A4.76,4.76,0,0,0,359,21.45a6.17,6.17,0,0,0,3,.31l.43-.14Z"/><path class="cls-2" d="M225.21,83.09c4.06-2.77,9.18-2.51,11.31-1,3.31,2.3,5,5.59,4,9.63-1.42,5.35-4.45,6.52-7.17,13.89-1.21,3.28-2.9,6.35-3.91,9.7-1.83,6-5.47,15.5-5.2,25.53a35.11,35.11,0,0,1-1.38,12,8.78,8.78,0,0,1-3.1,4.27,8,8,0,0,1-6.81,1.17c-3.1-.66-5-1.67-7.13-6-.44,0-.66.36-1,.58a10.16,10.16,0,0,1-11.74.24,5.78,5.78,0,0,1-2.91-5.51c.51-10.94,9.6-10.78,13.62-21.3,2-5.14,2.77-9.77,3.31-10.93a1.44,1.44,0,0,1,2.78.77c-.15.94-.36,1.87-.6,2.79-1.39,5.47-2.65,12.28-8.85,17.78-1.34,1.18-2.58,2.47-3.88,3.7a10.65,10.65,0,0,0-2.34,3.4,4.55,4.55,0,0,0,.73,5c2.47,3.2,5.06,2.1,7.06,1.71a3.46,3.46,0,0,0,1.78-.91,11.12,11.12,0,0,1,1.9-1.43,1.52,1.52,0,0,1,2.41.78c.28.7.49,1.43.74,2.14,1.26,3.54,4.35,4.67,7.62,4.15,1.66-.27,3.25-2.4,3.76-4.28a11.42,11.42,0,0,0,.45-5.29,12.3,12.3,0,0,1,0-3.32c1.2-18.57,4.77-24.8,9.91-38.48,2.76-7.33,6.54-9.25,7-14.18a5.55,5.55,0,0,0-4.52-5.45c-2.53-.31-5.44.34-7.15,2.37a2,2,0,0,1-3.46-.73,8.38,8.38,0,0,0-2.06-4.35c-2.84-3.14-8.18-1.66-9.11,3.91-.6,3.56.54,3.55,1.71,11.35a8.92,8.92,0,0,1,.05,3,3.83,3.83,0,0,1-.1.59,1.42,1.42,0,0,1-2.8-.43c.49-6.83-4-10.67-1.36-17.5A8.61,8.61,0,0,1,220,77.19C222.6,78.19,223.89,80.63,225.21,83.09Z"/><path class="cls-2" d="M210.74,103.29a1.36,1.36,0,0,1,1.2,1.52,9.85,9.85,0,0,1-.22,1.88,1.42,1.42,0,0,1-2.82-.28C208.88,105.74,209.26,103.06,210.74,103.29Z"/><path class="cls-2" d="M293.66,331.87c4.06-2.77,9.18-2.52,11.31-1,3.31,2.29,5,5.58,4,9.62-1.43,5.35-4.46,6.52-7.18,13.9-1.2,3.27-2.89,6.34-3.91,9.7-1.83,6-5.46,15.49-5.2,25.52a34.6,34.6,0,0,1-1.38,12,8.76,8.76,0,0,1-3.1,4.28,8,8,0,0,1-6.8,1.16c-3.1-.66-5-1.66-7.13-6-.44,0-.67.36-1,.57a10.18,10.18,0,0,1-11.74.25,5.8,5.8,0,0,1-2.91-5.51c.51-10.95,9.6-10.79,13.62-21.31,2-5.14,2.77-9.77,3.3-10.93a1.44,1.44,0,0,1,2.78.77c-.15.94-.36,1.87-.59,2.79-1.39,5.47-2.66,12.28-8.86,17.78-1.33,1.19-2.58,2.47-3.88,3.7a10.93,10.93,0,0,0-2.34,3.4,4.57,4.57,0,0,0,.73,5c2.47,3.2,5.07,2.1,7.07,1.7a3.25,3.25,0,0,0,1.77-.91,12,12,0,0,1,1.9-1.43,1.52,1.52,0,0,1,2.42.78c.28.7.49,1.43.74,2.14,1.26,3.54,4.35,4.67,7.62,4.15,1.66-.27,3.24-2.39,3.75-4.28a11.28,11.28,0,0,0,.45-5.29,12.23,12.23,0,0,1,0-3.31c1.19-18.58,4.77-24.8,9.91-38.48,2.75-7.34,6.54-9.25,7-14.19a5.55,5.55,0,0,0-4.52-5.45,8.09,8.09,0,0,0-7.16,2.38,1.94,1.94,0,0,1-3.45-.74,8.38,8.38,0,0,0-2.07-4.34c-2.84-3.15-8.18-1.67-9.11,3.9-.6,3.56.55,3.56,1.72,11.35a9.25,9.25,0,0,1,.05,3c0,.19-.05.39-.11.58a1.42,1.42,0,0,1-2.8-.42c.5-6.84-4-10.67-1.35-17.51a8.58,8.58,0,0,1,11.19-5.1C291.05,327,292.35,329.41,293.66,331.87Z"/><path class="cls-2" d="M279.2,352.06a1.37,1.37,0,0,1,1.2,1.52,9.3,9.3,0,0,1-.23,1.89,1.42,1.42,0,0,1-2.82-.28C277.34,354.51,277.72,351.83,279.2,352.06Z"/><path class="cls-2" d="M191,294.87c4.06-2.77,9.19-2.52,11.31-1,3.32,2.29,5.06,5.58,4,9.62-1.42,5.35-4.45,6.52-7.17,13.9-1.21,3.27-2.9,6.34-3.91,9.7-1.83,6-5.47,15.49-5.21,25.52a34.84,34.84,0,0,1-1.37,12,8.82,8.82,0,0,1-3.1,4.28,8,8,0,0,1-6.81,1.16c-3.1-.66-5-1.66-7.13-6-.44,0-.66.36-1,.57a10.18,10.18,0,0,1-11.74.25,5.8,5.8,0,0,1-2.91-5.51c.51-10.95,9.6-10.79,13.62-21.31,2-5.14,2.77-9.77,3.31-10.93a1.44,1.44,0,0,1,2.78.77c-.15.94-.36,1.87-.6,2.79-1.39,5.47-2.66,12.28-8.86,17.79-1.33,1.18-2.57,2.46-3.87,3.69a10.89,10.89,0,0,0-2.35,3.41,4.55,4.55,0,0,0,.74,5c2.47,3.2,5.06,2.1,7.06,1.7a3.37,3.37,0,0,0,1.78-.9,10.17,10.17,0,0,1,1.9-1.43,1.51,1.51,0,0,1,2.41.77c.28.7.49,1.43.74,2.14,1.26,3.54,4.35,4.67,7.62,4.15,1.66-.26,3.25-2.39,3.76-4.28a11.41,11.41,0,0,0,.45-5.29,12.23,12.23,0,0,1,0-3.31c1.2-18.58,4.77-24.8,9.91-38.48,2.76-7.34,6.54-9.25,7-14.19a5.56,5.56,0,0,0-4.52-5.45c-2.53-.31-5.44.34-7.15,2.38a2,2,0,0,1-3.46-.74,8.36,8.36,0,0,0-2.06-4.34c-2.84-3.15-8.18-1.67-9.12,3.91-.59,3.55.55,3.55,1.72,11.34a9,9,0,0,1,.05,3,3.91,3.91,0,0,1-.1.58,1.42,1.42,0,0,1-2.8-.42c.49-6.84-4-10.67-1.36-17.51a8.59,8.59,0,0,1,11.19-5.1C188.43,290,189.72,292.41,191,294.87Z"/><path class="cls-2" d="M176.57,315.06a1.37,1.37,0,0,1,1.2,1.52,10.05,10.05,0,0,1-.22,1.89,1.42,1.42,0,0,1-2.83-.28C174.71,317.52,175.09,314.83,176.57,315.06Z"/><path class="cls-2" d="M292.86,72.75c1-4.81,4.85-8.19,7.4-8.62,4-.65,7.51.5,9.55,4.15,2.69,4.83,1.33,7.78,4.5,15,1.41,3.19,2.33,6.57,3.94,9.69,2.88,5.61,6.84,14.93,14,22a34.54,34.54,0,0,1,7.34,9.57,8.8,8.8,0,0,1,.75,5.23,8,8,0,0,1-4.08,5.58c-2.68,1.68-4.76,2.28-9.32.62-.33.3-.23.72-.3,1.09a10.18,10.18,0,0,1-8.26,8.35,5.79,5.79,0,0,1-5.92-1.94c-7.24-8.21-.6-14.42-5-24.78-2.16-5.06-4.8-8.95-5.22-10.16a1.45,1.45,0,0,1,2.54-1.38c.54.78,1,1.6,1.51,2.42,2.8,4.9,6.63,10.67,6,18.94-.14,1.78-.14,3.57-.22,5.36a10.89,10.89,0,0,0,.68,4.07,4.54,4.54,0,0,0,4,3.07c4,.58,5.1-2,6.26-3.69a3.39,3.39,0,0,0,.65-1.89A11,11,0,0,1,324,133a1.51,1.51,0,0,1,2.27-1.12c.69.31,1.35.69,2,1,3.37,1.67,6.37.33,8.36-2.32,1-1.35.67-4-.28-5.69A11.31,11.31,0,0,0,333,120.8a12.7,12.7,0,0,1-2.29-2.4c-12.05-14.18-13.81-21.14-19.62-34.55-3.12-7.18-1.73-11.19-4.85-15a5.55,5.55,0,0,0-7-.77,8.11,8.11,0,0,0-3.49,6.69,2,2,0,0,1-3,1.88,8.42,8.42,0,0,0-4.51-1.68c-4.23-.29-7,4.49-3.83,9.15,2,3,2.86,2.17,9.12,7a9.3,9.3,0,0,1,2.1,2.1,4.2,4.2,0,0,1,.33.49,1.42,1.42,0,0,1-2.31,1.64c-4.39-5.25-10.29-4.88-13.14-11.63A8.61,8.61,0,0,1,285,72.16C287.58,71.05,290.21,71.9,292.86,72.75Z"/><path class="cls-2" d="M296.51,97.33a1.36,1.36,0,0,1,1.92.26,10,10,0,0,1,1.14,1.51,1.42,1.42,0,0,1-2.22,1.76C296.87,100.39,295.28,98.2,296.51,97.33Z"/><path class="cls-2" d="M146.72,152.18c1.77-4.59,6.13-7.29,8.72-7.29,4,0,7.32,1.72,8.74,5.66,1.86,5.2,0,7.89,2,15.51.86,3.38,1.22,6.87,2.29,10.2,1.93,6,4.31,15.86,10.22,24a34.69,34.69,0,0,1,5.68,10.65,8.89,8.89,0,0,1-.12,5.28A8,8,0,0,1,179.3,221c-2.93,1.22-5.07,1.48-9.3-.91-.37.24-.34.68-.47,1A10.18,10.18,0,0,1,160,228a5.79,5.79,0,0,1-5.52-2.88c-5.8-9.29,1.77-14.33-.9-25.28-1.3-5.34-3.27-9.61-3.49-10.87a1.45,1.45,0,0,1,2.73-.95c.41.86.76,1.75,1.09,2.64,2,5.29,4.79,11.61,2.82,19.67-.43,1.73-.72,3.49-1.09,5.24a10.88,10.88,0,0,0,0,4.14,4.56,4.56,0,0,0,3.44,3.68c3.85,1.23,5.36-1.16,6.78-2.62a3.41,3.41,0,0,0,.94-1.76,11.89,11.89,0,0,1,.75-2.25A1.52,1.52,0,0,1,170,216c.63.42,1.21.9,1.83,1.34,3,2.2,6.22,1.37,8.62-.92,1.22-1.16,1.31-3.82.66-5.66a11.24,11.24,0,0,0-2.64-4.6,12.55,12.55,0,0,1-1.86-2.75c-9.57-16-10.16-23.11-13.71-37.29-1.89-7.6.13-11.33-2.31-15.64a5.55,5.55,0,0,0-6.81-1.92c-2.26,1.19-4.29,3.38-4.54,6A2,2,0,0,1,146,156a8.43,8.43,0,0,0-4.17-2.4c-4.12-1-7.67,3.28-5.27,8.4,1.52,3.27,2.46,2.61,7.86,8.36a9.14,9.14,0,0,1,1.72,2.41,3.7,3.7,0,0,1,.24.54,1.41,1.41,0,0,1-2.54,1.24c-3.48-5.9-9.35-6.5-11.06-13.62a8.59,8.59,0,0,1,6.31-10.57C141.79,149.63,144.24,150.9,146.72,152.18Z"/><path class="cls-2" d="M146.3,177a1.37,1.37,0,0,1,1.85.57,10.32,10.32,0,0,1,.88,1.68,1.42,1.42,0,0,1-2.48,1.37C146.16,180.1,145,177.68,146.3,177Z"/><path class="cls-2" d="M206.78,390.27c1.77-4.59,6.13-7.29,8.72-7.29,4,0,7.33,1.72,8.74,5.66,1.86,5.21,0,7.89,2,15.51.86,3.38,1.22,6.87,2.29,10.2,1.93,6,4.31,15.86,10.22,24A34.92,34.92,0,0,1,244.42,449a8.81,8.81,0,0,1-.12,5.28,8,8,0,0,1-4.94,4.83c-2.92,1.22-5.07,1.48-9.3-.91-.37.24-.34.68-.47,1a10.18,10.18,0,0,1-9.51,6.88,5.79,5.79,0,0,1-5.53-2.88c-5.79-9.29,1.77-14.33-.9-25.28-1.3-5.34-3.27-9.61-3.49-10.87a1.45,1.45,0,0,1,2.73-1c.41.86.76,1.75,1.09,2.64,2,5.29,4.79,11.61,2.82,19.67-.43,1.73-.72,3.5-1.09,5.24a11.08,11.08,0,0,0,0,4.14,4.55,4.55,0,0,0,3.44,3.68c3.85,1.23,5.36-1.15,6.78-2.62a3.42,3.42,0,0,0,.94-1.75,11.75,11.75,0,0,1,.75-2.26,1.51,1.51,0,0,1,2.43-.73c.63.41,1.22.89,1.83,1.33,3,2.2,6.23,1.37,8.62-.92,1.22-1.16,1.31-3.81.66-5.66a11.4,11.4,0,0,0-2.63-4.6,12.25,12.25,0,0,1-1.87-2.75c-9.57-16-10.16-23.11-13.7-37.29-1.9-7.6.12-11.33-2.32-15.64a5.54,5.54,0,0,0-6.81-1.91,8.12,8.12,0,0,0-4.54,6,2,2,0,0,1-3.26,1.37,8.34,8.34,0,0,0-4.17-2.41c-4.12-1-7.67,3.29-5.27,8.4,1.53,3.27,2.47,2.61,7.86,8.36a9.3,9.3,0,0,1,1.72,2.41,3.7,3.7,0,0,1,.24.54,1.41,1.41,0,0,1-2.54,1.24c-3.47-5.9-9.35-6.5-11.06-13.62a8.6,8.6,0,0,1,6.31-10.57C201.85,387.72,204.31,389,206.78,390.27Z"/><path class="cls-2" d="M206.36,415.11a1.37,1.37,0,0,1,1.85.57,10,10,0,0,1,.88,1.68,1.42,1.42,0,0,1-2.48,1.38C206.22,418.19,205,415.77,206.36,415.11Z"/><path class="cls-2" d="M32.15,449a34.92,34.92,0,0,0-5.68-10.65c-5.91-8.1-8.29-17.94-10.22-24-1.07-3.33-1.43-6.82-2.29-10.2-2-7.62-.13-10.3-2-15.51C10.56,384.7,7.25,383,3.23,383A7.1,7.1,0,0,0,0,384v3.7a9.65,9.65,0,0,1,1.56-1,5.54,5.54,0,0,1,6.81,1.91c2.44,4.31.42,8,2.32,15.64,3.54,14.18,4.13,21.33,13.7,37.29a12.25,12.25,0,0,0,1.87,2.75,11.4,11.4,0,0,1,2.63,4.6c.65,1.85.56,4.5-.66,5.66-2.39,2.29-5.58,3.12-8.62.92-.62-.44-1.2-.92-1.83-1.33a1.51,1.51,0,0,0-2.43.73,11.75,11.75,0,0,0-.75,2.26,3.42,3.42,0,0,1-.94,1.75c-1.42,1.47-2.93,3.85-6.78,2.62a4.55,4.55,0,0,1-3.44-3.68,11.08,11.08,0,0,1,0-4.14c.37-1.74.66-3.51,1.09-5.24,2-8.06-.85-14.38-2.82-19.67-.33-.89-.68-1.78-1.09-2.64a1.82,1.82,0,0,0-.62-.71v7.79c.48,1.43,1,3,1.38,4.74,2.67,10.95-4.9,16,.9,25.28a5.78,5.78,0,0,0,5.53,2.88,10.18,10.18,0,0,0,9.51-6.88c.13-.35.1-.79.47-1,4.23,2.39,6.38,2.13,9.3.91A8,8,0,0,0,32,454.24,8.81,8.81,0,0,0,32.15,449Z"/><path class="cls-2" d="M18.42,217a61.15,61.15,0,0,1-2.83-5.89c-.81-1.93.08-3.64.38-5.63.45-3,.7-6.86-1.73-9.1a6.76,6.76,0,0,0-6.72-1c-4.83,2.16-4.73,6.21-7.52,8.91v20.68a13,13,0,0,1,1.7.23c5.52,1.15,5.41,3.1,9.06,4.47,4,1.49,7.14-1.38,8.13-4.82A8.38,8.38,0,0,0,18.42,217Z"/><path class="cls-2" d="M12.66,178.63c2.05,3.67,1,8.07-.12,11.93a6.4,6.4,0,0,1-.84,2C9.18,196,2.37,193.45.85,187.2,0,183.48.4,179.68,2.6,176.84S10.39,174.59,12.66,178.63Z"/><path class="cls-2" d="M34.49,208.43A17.87,17.87,0,0,1,33.14,211c-4.44,6.64-17,1.08-13.9-5.38,2.07-4.28,5.92-7.13,11.09-6.94,4,.16,5.58,3.53,4.83,7.31A13.88,13.88,0,0,1,34.49,208.43Z"/><path class="cls-2" d="M16.89,195.49c-1.84-2.27.39-6,1.9-8.25s4.33-4.33,7.12-4.56c3.6-.3,7,2.74,6.09,6.64a14.4,14.4,0,0,1-2.68,5.09,8.94,8.94,0,0,1-7.83,3.93C20,198.25,18,196.9,16.89,195.49Z"/><path class="cls-2" d="M314.6,197.15c1.83-1.52,4.67-1.9,6.29.42,1.49,2.13.7,3.16,3.3,5.87,1.21,1.27,2.59,1.8,3.63,3a6.46,6.46,0,0,1,.84,6.67c-1.2,2.57-3.46,4.4-6.24,3.56-.95-.29-1.87-.69-2.83-.94-4.26-1.12-5.43,2.74-9.83,1.93a4.51,4.51,0,0,1-3.33-3.08c-.49-2.15,1.1-4.17,2.48-5.66.91-1,2-1.59,2.33-3a41.09,41.09,0,0,0,.66-4.31A5.58,5.58,0,0,1,314.6,197.15Z"/><path class="cls-2" d="M320.72,220.22a4.82,4.82,0,0,1,.91,2.28,11.36,11.36,0,0,1-1.06,6.69c-.93,1.86-3,3.3-5.07,2.74a3.75,3.75,0,0,1-2.8-3.35c-.49-2.85.52-5,2.42-8.86.63-1.28,1.86-2.16,3.35-1.52A6.15,6.15,0,0,1,320.72,220.22Z"/><path class="cls-2" d="M300.63,224.93c.25-2.79,2.47-4.84,4.56-6.52a4.13,4.13,0,0,1,1.22-.79c2.68-1,5.47,3,3.95,7a8.08,8.08,0,0,1-4.87,5C303.16,230.47,300.36,228,300.63,224.93Z"/><path class="cls-2" d="M299.84,200.29a12,12,0,0,1,1.7-.9c4.95-2,9.78,5.83,5.63,8.21a7.68,7.68,0,0,1-8.72-.37c-2.16-1.6-1.74-4,.1-5.84A8,8,0,0,1,299.84,200.29Z"/><path class="cls-2" d="M304.65,214.05c.16,1.95-2.47,3.16-4.15,3.82a7.1,7.1,0,0,1-5.64-.16,3.7,3.7,0,0,1-.85-6A9.7,9.7,0,0,1,297.4,210a6,6,0,0,1,5.79.79A5,5,0,0,1,304.65,214.05Z"/><path class="cls-2" d="M235,293.72c1.84-1.52,4.67-1.9,6.29.41,1.49,2.13.7,3.16,3.3,5.88,1.22,1.26,2.6,1.8,3.64,3a6.45,6.45,0,0,1,.83,6.67c-1.19,2.57-3.46,4.4-6.24,3.56-.95-.29-1.87-.69-2.83-.95-4.26-1.12-5.43,2.75-9.83,1.94a4.49,4.49,0,0,1-3.32-3.09c-.5-2.14,1.09-4.17,2.47-5.65.92-1,2-1.6,2.34-3s.5-2.85.65-4.31A5.6,5.6,0,0,1,235,293.72Z"/><path class="cls-2" d="M241.11,316.78a4.7,4.7,0,0,1,.91,2.29,11.32,11.32,0,0,1-1.05,6.68c-.94,1.86-3,3.3-5.08,2.75a3.76,3.76,0,0,1-2.8-3.35c-.49-2.85.52-5,2.43-8.86.63-1.28,1.85-2.16,3.34-1.52A6.12,6.12,0,0,1,241.11,316.78Z"/><path class="cls-2" d="M221,321.5c.25-2.79,2.46-4.84,4.55-6.53a4.45,4.45,0,0,1,1.22-.78c2.69-.95,5.47,3,3.95,7.05a8.05,8.05,0,0,1-4.87,5C223.55,327,220.75,324.58,221,321.5Z"/><path class="cls-2" d="M220.23,296.86a11.06,11.06,0,0,1,1.7-.9c4.95-2,9.79,5.83,5.63,8.2a7.68,7.68,0,0,1-8.72-.36c-2.16-1.61-1.74-4.05.1-5.85A9,9,0,0,1,220.23,296.86Z"/><path class="cls-2" d="M225.05,310.62c.15,1.94-2.48,3.15-4.16,3.82a7.08,7.08,0,0,1-5.63-.17,3.7,3.7,0,0,1-.86-5.95,9.54,9.54,0,0,1,3.39-1.79,6,6,0,0,1,5.79.79A5,5,0,0,1,225.05,310.62Z"/><path class="cls-2" d="M255.05,358.05c2.09,1.15,3.48,3.65,1.92,6-1.44,2.17-2.68,1.81-4.26,5.23-.73,1.59-.72,3.07-1.46,4.47a6.46,6.46,0,0,1-5.9,3.23c-2.83-.17-5.37-1.61-5.6-4.5-.09-1-.05-2-.16-3-.52-4.37-4.55-4-5.41-8.43a4.48,4.48,0,0,1,1.65-4.22c1.82-1.25,4.28-.52,6.18.22,1.25.49,2.23,1.32,3.61,1.08a39.51,39.51,0,0,0,4.25-1A5.62,5.62,0,0,1,255.05,358.05Z"/><path class="cls-2" d="M235.82,372.21a4.73,4.73,0,0,1-1.79,1.68,11.38,11.38,0,0,1-6.61,1.47c-2.07-.19-4.18-1.59-4.42-3.71a3.76,3.76,0,0,1,2.09-3.83c2.47-1.5,4.86-1.36,9.14-1,1.42.12,2.69.93,2.64,2.55A6.1,6.1,0,0,1,235.82,372.21Z"/><path class="cls-2" d="M224.07,355.26c2.69-.79,5.4.52,7.74,1.84A4.28,4.28,0,0,1,233,358c1.88,2.15-.81,6.2-5.1,6.26a8.07,8.07,0,0,1-6.48-2.68C219.84,359.64,221.09,356.14,224.07,355.26Z"/><path class="cls-2" d="M246.71,345.48a11.68,11.68,0,0,1,1.46,1.26c3.67,3.87-1.84,11.23-5.57,8.24a7.66,7.66,0,0,1-2.86-8.24c.7-2.6,3.13-3.1,5.48-2.05A8.5,8.5,0,0,1,246.71,345.48Z"/><path class="cls-2" d="M235.66,355c-1.75.86-3.84-1.14-5.08-2.46a7.11,7.11,0,0,1-1.91-5.3,3.71,3.71,0,0,1,5.23-3,9.58,9.58,0,0,1,2.91,2.5,5.93,5.93,0,0,1,1.39,5.67A5,5,0,0,1,235.66,355Z"/><path class="cls-2" d="M216.35,510.81a17.73,17.73,0,0,1,.1,1.79h12.37a10.56,10.56,0,0,1,.66-2c1.57-3.42,2.82-3.06,4.26-5.23,1.56-2.35.17-4.85-1.92-6a5.63,5.63,0,0,0-5.18-.86,40.24,40.24,0,0,1-4.26,1c-1.38.24-2.35-.59-3.61-1.08-1.89-.74-4.36-1.47-6.17-.22a4.51,4.51,0,0,0-1.66,4.22C211.81,506.76,215.83,506.44,216.35,510.81Z"/><path class="cls-2" d="M213.08,512.6a4.7,4.7,0,0,0,.56-1.93c.05-1.62-1.22-2.43-2.64-2.55-4.28-.36-6.67-.5-9.14,1a3.78,3.78,0,0,0-2.12,3.48Z"/><path class="cls-2" d="M200.83,496.56c2.69-.79,5.41.52,7.74,1.84a4.33,4.33,0,0,1,1.18.85c1.87,2.15-.82,6.2-5.11,6.26a8.1,8.1,0,0,1-6.48-2.68C196.6,500.94,197.86,497.44,200.83,496.56Z"/><path class="cls-2" d="M223.48,486.78a11.57,11.57,0,0,1,1.46,1.26c3.66,3.87-1.84,11.23-5.58,8.24a7.67,7.67,0,0,1-2.85-8.24c.7-2.6,3.12-3.1,5.47-2.06A9.38,9.38,0,0,1,223.48,486.78Z"/><path class="cls-2" d="M212.43,496.31c-1.75.86-3.84-1.14-5.08-2.46a7.11,7.11,0,0,1-1.91-5.3,3.7,3.7,0,0,1,5.23-3,9.56,9.56,0,0,1,2.91,2.5,5.93,5.93,0,0,1,1.39,5.67A5.07,5.07,0,0,1,212.43,496.31Z"/><path class="cls-2" d="M360.3,435.18c.58,2.31-.3,5-3.09,5.49-2.56.42-3.15-.73-6.73.44-1.66.54-2.74,1.56-4.28,2a6.48,6.48,0,0,1-6.38-2.13c-1.8-2.18-2.47-5-.51-7.16.67-.73,1.43-1.39,2.07-2.14,2.85-3.36-.13-6.08,2.5-9.7a4.49,4.49,0,0,1,4.22-1.66c2.15.48,3.29,2.78,4,4.67.49,1.25.55,2.53,1.66,3.38a40.85,40.85,0,0,0,3.61,2.45A5.6,5.6,0,0,1,360.3,435.18Z"/><path class="cls-2" d="M336.84,430.74a4.77,4.77,0,0,1-2.46-.17,11.28,11.28,0,0,1-5.57-3.84c-1.28-1.64-1.68-4.14-.29-5.75a3.74,3.74,0,0,1,4.23-1.08c2.78.78,4.3,2.63,6.95,6,.88,1.12,1.15,2.6-.07,3.67A6.16,6.16,0,0,1,336.84,430.74Z"/><path class="cls-2" d="M341.26,410.6c2.41,1.43,3.3,4.31,3.92,6.92a4.38,4.38,0,0,1,.18,1.44c-.3,2.83-5.1,3.62-8.07.52a8.08,8.08,0,0,1-2.45-6.57C335.17,410.48,338.6,409,341.26,410.6Z"/><path class="cls-2" d="M362.45,417.12a3.24,3.24,0,0,0-4.27-.85,7.66,7.66,0,0,0-4.1,7.7c.27,3.65,5.68,3.93,8.37,1.48Z"/><path class="cls-2" d="M349.34,418.92c-1.82-.7-1.78-3.59-1.65-5.4a7,7,0,0,1,2.58-5,3.7,3.7,0,0,1,5.74,1.8,9.68,9.68,0,0,1,.16,3.83A6,6,0,0,1,353,419,5,5,0,0,1,349.34,418.92Z"/><path class="cls-2" d="M276.23,171.88c4-2.77,9.18-2.51,11.31-1,3.31,2.29,5,5.59,4,9.63-1.42,5.34-4.45,6.52-7.17,13.89-1.21,3.27-2.9,6.35-3.91,9.7-1.83,6-5.47,15.5-5.2,25.53a35.14,35.14,0,0,1-1.38,12,8.78,8.78,0,0,1-3.1,4.27,8,8,0,0,1-6.81,1.17c-3.1-.66-5-1.67-7.13-6-.44,0-.66.36-1,.57a10.18,10.18,0,0,1-11.74.25,5.79,5.79,0,0,1-2.91-5.51c.51-10.94,9.6-10.78,13.62-21.31,2-5.14,2.77-9.77,3.31-10.93a1.44,1.44,0,0,1,2.78.77c-.15.94-.36,1.87-.6,2.8-1.39,5.46-2.65,12.27-8.85,17.78-1.34,1.18-2.58,2.47-3.88,3.69a10.69,10.69,0,0,0-2.34,3.41,4.53,4.53,0,0,0,.73,5c2.47,3.2,5.06,2.1,7.06,1.7a3.37,3.37,0,0,0,1.78-.9,10.62,10.62,0,0,1,1.9-1.43,1.51,1.51,0,0,1,2.41.78c.28.69.49,1.42.74,2.13,1.26,3.55,4.35,4.67,7.62,4.15,1.66-.26,3.25-2.39,3.76-4.28a11.37,11.37,0,0,0,.45-5.28,12.3,12.3,0,0,1,0-3.32c1.2-18.58,4.77-24.8,9.91-38.48,2.76-7.34,6.54-9.25,7-14.18a5.56,5.56,0,0,0-4.52-5.46c-2.53-.3-5.44.34-7.15,2.38a2,2,0,0,1-3.46-.73,8.35,8.35,0,0,0-2.06-4.35c-2.84-3.15-8.18-1.67-9.11,3.91-.6,3.55.54,3.55,1.71,11.35a8.91,8.91,0,0,1,.05,3,3.7,3.7,0,0,1-.1.58,1.42,1.42,0,0,1-2.8-.42c.49-6.84-4-10.67-1.36-17.5A8.59,8.59,0,0,1,271,166C273.62,167,274.91,169.42,276.23,171.88Z"/><path class="cls-2" d="M261.76,192.08a1.36,1.36,0,0,1,1.2,1.52,10,10,0,0,1-.22,1.88,1.42,1.42,0,0,1-2.82-.28C259.9,194.53,260.28,191.85,261.76,192.08Z"/><path class="cls-2" d="M101.56,427c4.06-2.77,9.18-2.51,11.31-1,3.31,2.3,5,5.59,4,9.63-1.42,5.35-4.45,6.52-7.17,13.89-1.21,3.27-2.9,6.35-3.91,9.7-1.83,6-5.47,15.5-5.2,25.53a35.11,35.11,0,0,1-1.38,12,8.78,8.78,0,0,1-3.1,4.27,8,8,0,0,1-6.81,1.17c-3.1-.66-5-1.67-7.13-6-.44,0-.66.36-1,.58a10.18,10.18,0,0,1-11.74.24,5.79,5.79,0,0,1-2.9-5.51c.5-10.94,9.59-10.78,13.61-21.31,2-5.14,2.77-9.77,3.31-10.93a1.44,1.44,0,0,1,2.78.78c-.15.93-.36,1.87-.6,2.79C84.24,468.2,83,475,76.78,480.51c-1.34,1.18-2.58,2.47-3.88,3.69a10.69,10.69,0,0,0-2.34,3.41,4.55,4.55,0,0,0,.73,5c2.47,3.2,5.06,2.1,7.06,1.71a3.46,3.46,0,0,0,1.78-.91A11.52,11.52,0,0,1,82,492a1.51,1.51,0,0,1,2.41.78c.28.7.49,1.42.74,2.14,1.26,3.54,4.35,4.67,7.62,4.14,1.66-.26,3.25-2.39,3.76-4.27a11.42,11.42,0,0,0,.45-5.29,12.3,12.3,0,0,1,0-3.32c1.2-18.58,4.77-24.8,9.91-38.48,2.76-7.33,6.54-9.25,7-14.18A5.56,5.56,0,0,0,109.4,428c-2.53-.31-5.44.34-7.15,2.37a2,2,0,0,1-3.46-.73,8.38,8.38,0,0,0-2.06-4.35c-2.84-3.14-8.18-1.66-9.11,3.91-.6,3.56.55,3.55,1.72,11.35a9.19,9.19,0,0,1,0,3,3.51,3.51,0,0,1-.1.58,1.42,1.42,0,0,1-2.8-.42c.49-6.83-4-10.67-1.36-17.5a8.6,8.6,0,0,1,11.2-5.11C99,422.09,100.24,424.53,101.56,427Z"/><path class="cls-2" d="M87.09,447.19a1.36,1.36,0,0,1,1.2,1.52,10,10,0,0,1-.22,1.88,1.42,1.42,0,0,1-2.82-.28C85.23,449.64,85.61,447,87.09,447.19Z"/><path class="cls-2" d="M326.84,248.74c2-4.48,6.53-6.93,9.11-6.78,4,.23,7.23,2.13,8.42,6.14,1.58,5.3-.4,7.88,1.13,15.59.68,3.42.85,6.92,1.73,10.31,1.6,6.11,3.43,16.07,8.89,24.49a34.77,34.77,0,0,1,5.09,10.95,8.78,8.78,0,0,1-.41,5.26,8,8,0,0,1-5.2,4.54c-3,1.05-5.14,1.19-9.24-1.43-.38.21-.37.65-.52,1a10.18,10.18,0,0,1-9.89,6.33,5.8,5.8,0,0,1-5.36-3.19c-5.28-9.6,2.56-14.2.49-25.28-1-5.4-2.74-9.77-2.88-11a1.44,1.44,0,0,1,2.77-.79c.36.87.67,1.78.95,2.69,1.67,5.39,4.15,11.86,1.73,19.79-.52,1.7-.91,3.45-1.38,5.17a11,11,0,0,0-.22,4.13,4.57,4.57,0,0,0,3.23,3.86c3.78,1.45,5.42-.84,6.92-2.23a3.4,3.4,0,0,0,1-1.69,11.41,11.41,0,0,1,.87-2.21,1.52,1.52,0,0,1,2.47-.6c.6.45,1.16,1,1.75,1.44,2.92,2.36,6.14,1.71,8.66-.44,1.28-1.09,1.52-3.73,1-5.6a11.29,11.29,0,0,0-2.38-4.75,12.62,12.62,0,0,1-1.71-2.84c-8.68-16.47-8.88-23.64-11.64-38-1.48-7.69.75-11.3-1.45-15.74a5.56,5.56,0,0,0-6.7-2.29c-2.32,1.06-4.46,3.13-4.86,5.76a1.94,1.94,0,0,1-3.33,1.17,8.52,8.52,0,0,0-4-2.63c-4.07-1.2-7.85,2.85-5.74,8.09,1.35,3.34,2.32,2.74,7.39,8.78a9.39,9.39,0,0,1,1.59,2.5c.07.19.17.37.22.56a1.42,1.42,0,0,1-2.61,1.09c-3.15-6.08-9-7-10.3-14.22a8.59,8.59,0,0,1,6.88-10.19C322.06,245.92,324.44,247.33,326.84,248.74Z"/><path class="cls-2" d="M325.05,273.51a1.37,1.37,0,0,1,1.82.67,9.91,9.91,0,0,1,.79,1.72,1.42,1.42,0,0,1-2.55,1.24C324.75,276.57,323.67,274.09,325.05,273.51Z"/><path class="cls-2" d="M278.71,511.83a1.41,1.41,0,0,0,1,.77h.61a1.45,1.45,0,0,0,1-1.87,5.25,5.25,0,0,0-.22-.55,9.08,9.08,0,0,0-1.59-2.5c-5.07-6-6-5.44-7.39-8.79-2.11-5.24,1.67-9.29,5.74-8.08a8.37,8.37,0,0,1,4,2.63,2,2,0,0,0,3.33-1.18,8.07,8.07,0,0,1,4.86-5.75,5.54,5.54,0,0,1,6.7,2.29c2.2,4.44,0,8.05,1.45,15.74.57,2.94,1,5.58,1.47,8.06h3c-.47-2.64-.69-5.31-1.22-7.94-1.53-7.71.45-10.29-1.13-15.59-1.19-4-4.4-5.91-8.42-6.14-2.59-.15-7.09,2.31-9.11,6.78-2.4-1.41-4.78-2.82-7.55-2.3a8.59,8.59,0,0,0-6.88,10.2C269.72,504.81,275.56,505.74,278.71,511.83Z"/><path class="cls-2" d="M332.17,30c1.6,3.2,1.2,7.47-2.73,9.06-3.61,1.45-4.85-.05-9.68,2.84-2.26,1.34-3.51,3.18-5.61,4.3a9.64,9.64,0,0,1-10-1c-3.34-2.61-5.26-6.54-3.09-10.32.74-1.29,1.64-2.5,2.33-3.82,3.07-5.84-2.17-8.86.49-15a6.76,6.76,0,0,1,5.62-3.82c3.3,0,5.72,3,7.43,5.53,1.12,1.67,1.63,3.53,3.53,4.41a61.81,61.81,0,0,0,6.07,2.41A8.37,8.37,0,0,1,332.17,30Z"/><path class="cls-2" d="M296.45,31.22a7.2,7.2,0,0,1-3.65.55A17,17,0,0,1,283.41,28c-2.4-2-3.8-5.52-2.3-8.35,1.17-2.19,3.1-3.11,5.83-3,4.32.24,7.15,2.45,12.12,6.53,1.65,1.35,2.53,3.44,1.08,5.4A9.22,9.22,0,0,1,296.45,31.22Z"/><path class="cls-2" d="M304.32,9.12c-1.75-3.62-4-7.55-8-8.85A6.51,6.51,0,0,0,295.22,0h-2.13c-3.12.48-5.6,3-5.37,5.75a12.1,12.1,0,0,0,5.72,8.82c5.35,3.57,12.1.84,11.61-3.4A6.21,6.21,0,0,0,304.32,9.12Z"/><path class="cls-2" d="M332.56,7.41a16.61,16.61,0,0,1,.74,2.79c1.23,7.9-11.81,12.33-13.87,5.46A11.53,11.53,0,0,1,322.91,3C326,.43,329.4,1.86,331.4,5.15A12.69,12.69,0,0,1,332.56,7.41Z"/><path class="cls-2" d="M319.2,0H306.61a11.59,11.59,0,0,0,.07,2.45c.41,2.68,1.29,6.93,4.18,7.36,1.79.26,4.12-.05,5.31-1a8.91,8.91,0,0,0,3.1-8.19C319.25.39,319.23.2,319.2,0Z"/><path class="cls-2" d="M240.13,7.5a9,9,0,0,0-1.72-2.41A59.48,59.48,0,0,0,233.06,0h-4.29c2.53,3.42,6.47,4.87,9.06,9.28A1.42,1.42,0,0,0,240.38,8,3.76,3.76,0,0,0,240.13,7.5Z"/><path class="cls-2" d="M272.7,35c-5.91-8.1-8.29-17.95-10.22-24-1.07-3.34-1.42-6.83-2.29-10.2-.07-.29-.14-.57-.2-.84h-3.28c.07.29.13.59.21.9,3.54,14.18,4.14,21.33,13.71,37.29a12.44,12.44,0,0,0,1.86,2.75,11.22,11.22,0,0,1,2.63,4.6c.65,1.84.56,4.49-.65,5.66-2.4,2.29-5.58,3.12-8.63.92-.61-.44-1.2-.92-1.83-1.34a1.51,1.51,0,0,0-2.42.74,11.25,11.25,0,0,0-.76,2.25,3.34,3.34,0,0,1-.94,1.76c-1.42,1.46-2.93,3.84-6.78,2.61a4.53,4.53,0,0,1-3.43-3.68,10.83,10.83,0,0,1,0-4.13c.37-1.75.67-3.51,1.09-5.25,2-8-.85-14.38-2.81-19.66-.33-.9-.69-1.78-1.1-2.64a1.44,1.44,0,0,0-2.72.95c.21,1.26,2.18,5.52,3.48,10.87,2.68,10.94-4.89,16,.91,25.28A5.79,5.79,0,0,0,254,62.75a10.19,10.19,0,0,0,9.52-6.88c.13-.35.1-.78.47-1,4.22,2.39,6.37,2.13,9.29.91a8,8,0,0,0,4.94-4.83,8.81,8.81,0,0,0,.12-5.28A34.69,34.69,0,0,0,272.7,35Z"/><path class="cls-2" d="M240.32,11.8a1.37,1.37,0,0,1,1.85.57,9.55,9.55,0,0,1,.89,1.67,1.42,1.42,0,0,1-2.48,1.38C240.18,14.88,239,12.45,240.32,11.8Z"/><path class="cls-2" d="M207.78,59.37c-2.1,2.89-6.08,4.49-9.29,1.73-3-2.55-2.18-4.34-7-7.32-2.23-1.39-4.44-1.66-6.39-3a9.66,9.66,0,0,1-3.68-9.37c.79-4.17,3.41-7.68,7.76-7.48,1.48.06,3,.31,4.45.32,6.6.06,6.88-6,13.57-6.44a6.75,6.75,0,0,1,6,3.25c1.51,2.93-.05,6.46-1.51,9.13-1,1.77-2.38,3.07-2.3,5.16s.32,4.33.64,6.51A8.36,8.36,0,0,1,207.78,59.37Z"/><path class="cls-2" d="M190.37,28.13a7.32,7.32,0,0,1-2.17-3,17,17,0,0,1-.93-10.1c.67-3.05,3.16-5.91,6.36-5.87,2.48,0,4.19,1.34,5.3,3.83,1.77,4,1.1,7.48-.25,13.77-.44,2.09-1.89,3.83-4.29,3.44A9.14,9.14,0,0,1,190.37,28.13Z"/><path class="cls-2" d="M217.81,13.85C218.48,18,216,21.79,213.6,25a6.22,6.22,0,0,1-1.48,1.59c-3.55,2.38-9.07-2.38-8.34-8.77.43-3.8,2.16-7.21,5.21-9.12S217.07,9.28,217.81,13.85Z"/><path class="cls-2" d="M228.06,49.35a17.19,17.19,0,0,1-2.14,1.94c-6.45,4.71-16.36-4.86-11.2-9.84,3.42-3.3,8-4.65,12.8-2.69,3.73,1.53,4,5.23,2,8.52A12.35,12.35,0,0,1,228.06,49.35Z"/><path class="cls-2" d="M216,31.14c-1-2.77,2.42-5.49,4.62-7.09s5.56-2.57,8.25-1.84c3.49,1,5.64,5,3.43,8.34A14.27,14.27,0,0,1,228,34.4a8.92,8.92,0,0,1-8.7,1C217.92,34.79,216.57,32.86,216,31.14Z"/><path class="cls-2" d="M74.35,171.88c4.06-2.77,9.18-2.51,11.31-1,3.31,2.29,5,5.59,4,9.63-1.43,5.34-4.46,6.52-7.18,13.89-1.21,3.27-2.89,6.35-3.91,9.7-1.83,6-5.46,15.5-5.2,25.53a34.9,34.9,0,0,1-1.38,12,8.78,8.78,0,0,1-3.1,4.27A8,8,0,0,1,62.06,247c-3.09-.66-5-1.67-7.12-6-.45,0-.67.36-1,.57a10.16,10.16,0,0,1-11.73.25,5.79,5.79,0,0,1-2.91-5.51c.51-10.94,9.6-10.78,13.62-21.31,2-5.14,2.76-9.77,3.3-10.93a1.44,1.44,0,0,1,2.78.77c-.15.94-.36,1.87-.59,2.8-1.39,5.46-2.66,12.27-8.86,17.78-1.33,1.18-2.58,2.47-3.88,3.69a10.86,10.86,0,0,0-2.34,3.41,4.55,4.55,0,0,0,.73,5c2.47,3.2,5.07,2.1,7.07,1.7a3.34,3.34,0,0,0,1.77-.9,11,11,0,0,1,1.9-1.43,1.5,1.5,0,0,1,2.41.78c.29.69.5,1.42.75,2.13,1.26,3.55,4.34,4.67,7.62,4.15,1.66-.26,3.24-2.39,3.75-4.28a11.24,11.24,0,0,0,.45-5.28,12.3,12.3,0,0,1,0-3.32c1.19-18.58,4.76-24.8,9.91-38.48,2.75-7.34,6.54-9.25,7-14.18a5.56,5.56,0,0,0-4.52-5.46c-2.54-.3-5.44.34-7.16,2.38a1.94,1.94,0,0,1-3.45-.73,8.39,8.39,0,0,0-2.07-4.35c-2.84-3.15-8.18-1.67-9.11,3.91-.6,3.55.55,3.55,1.72,11.35a9.19,9.19,0,0,1,0,3,5.4,5.4,0,0,1-.11.58,1.42,1.42,0,0,1-2.8-.42c.5-6.84-4-10.67-1.36-17.5A8.6,8.6,0,0,1,69.11,166C71.74,167,73,169.42,74.35,171.88Z"/><path class="cls-2" d="M59.89,192.08a1.36,1.36,0,0,1,1.2,1.52,10,10,0,0,1-.23,1.88A1.42,1.42,0,0,1,58,195.2C58,194.53,58.41,191.85,59.89,192.08Z"/></g></g></g></svg>