<svg xmlns="http://www.w3.org/2000/svg" viewBox="0 0 23.09 23.09"><defs><style>.cls-1{fill:#212248;}</style></defs><g id="Camada_2" data-name="Camada 2"><g id="Tela_1" data-name="Tela 1"><g id="Início"><path class="cls-1" d="M17.66,4.12A1.36,1.36,0,1,0,19,5.48,1.36,1.36,0,0,0,17.66,4.12Z"/><path class="cls-1" d="M11.64,5.86a5.69,5.69,0,1,0,5.69,5.68A5.69,5.69,0,0,0,11.64,5.86Zm0,9.33a3.65,3.65,0,1,1,3.64-3.65A3.65,3.65,0,0,1,11.64,15.19Z"/><path class="cls-1" d="M16.15,23.09H6.94A6.94,6.94,0,0,1,0,16.15V6.94A6.94,6.94,0,0,1,6.94,0h9.21a6.94,6.94,0,0,1,6.94,6.94v9.21A6.94,6.94,0,0,1,16.15,23.09ZM6.94,2.17A4.78,4.78,0,0,0,2.17,6.94v9.21a4.78,4.78,0,0,0,4.77,4.77h9.21a4.78,4.78,0,0,0,4.77-4.77V6.94a4.78,4.78,0,0,0-4.77-4.77Z"/></g></g></g></svg>