<svg xmlns="http://www.w3.org/2000/svg" viewBox="0 0 296.83 116.44"><defs><style>.cls-1,.cls-3,.cls-6{fill:#fff;}.cls-2,.cls-4{fill:#ffd933;}.cls-3,.cls-4,.cls-5{fill-rule:evenodd;}.cls-5{fill:#5f4394;}.cls-6{font-size:13.8px;font-family:ArialMT, Arial;}.cls-7{letter-spacing:-0.11em;}.cls-8{letter-spacing:0.02em;}.cls-9{letter-spacing:0.01em;}.cls-10{letter-spacing:-0.11em;}.cls-11{letter-spacing:-0.01em;}.cls-12{letter-spacing:-0.16em;}.cls-13{letter-spacing:-0.06em;}.cls-14{letter-spacing:-0.07em;}.cls-15{letter-spacing:-0.03em;}.cls-16{letter-spacing:0.03em;}.cls-17{letter-spacing:-0.05em;}.cls-18{letter-spacing:-0.04em;}.cls-19{letter-spacing:-0.04em;}.cls-20{letter-spacing:-0.06em;}.cls-21{letter-spacing:-0.06em;}</style></defs><g id="Camada_2" data-name="Camada 2"><g id="Tela_1" data-name="Tela 1"><g id="Início"><g id="Logo"><path class="cls-1" d="M128.22,50.44c0-1.14.06-3,.06-5.71v-5c0-4.57-2.62-8.11-7.51-8.11a16.1,16.1,0,0,0-5.7,1,13.53,13.53,0,0,0-2.22,1c.06,5.31.11,10,.17,14,0,2.57.09,5.71.12,7.94s.11,12.64.11,13.79v.8c0,6.7,3.2,10.07,9.53,10.07,3.86,0,4.52-1.48,5-2.59l.18-.4Z"/><path class="cls-1" d="M153.76,40.79c-2.53,0-5.38,1.2-8.55,3.54l-.29.23a24.3,24.3,0,0,0,.46-4.51c0-4.88-2.13-7.62-6.45-8.31a4.23,4.23,0,0,0-1.43-.17,14.47,14.47,0,0,0-5.1,1,22,22,0,0,0-2.3,1c.17,5.79.28,9.68.28,11.56,0,1.6,0,4-.11,7.28s-.17,5.54-.17,6.85c0,3.17.05,13.22.69,15.56.86,3.22,2.88,5.22,7.4,5.22a17.65,17.65,0,0,0,5.58-.8,4.17,4.17,0,0,0,1.44-.8V56.49A3.89,3.89,0,0,1,147,54.58a2.54,2.54,0,0,1,1-.29,1.83,1.83,0,0,1,2,2.09c0-.29-.29,14.61-.29,17.35,0,3.46,2.25,6.6,7.37,6.6A11.4,11.4,0,0,0,163,79a4.11,4.11,0,0,0,1.43-1.37c.29-10.94.58-25.58.58-27.07v-.05c0-6.48-3.77-9.68-11.26-9.68Z"/><path class="cls-1" d="M200.2,73.13a.24.24,0,0,0-.14,0,5.54,5.54,0,0,1-2.07-2V71c0-1.08.14-2.8.34-5.08s.35-3.91.35-5c0-5.77-1.76-10.59-5.56-13.71s-8.15-4-13.9-4c-4.24,0-6.11.69-10.14,2.06-.49.88-.75,1.6-.75,4.36,0,4.94,2.42,6.4,6.6,6.4,1.58,0,3.8-.49,5.12-.49,4.29,0,6.45,1.32,6.45,3.86v.48a24.26,24.26,0,0,0-8.87-1.8,15.91,15.91,0,0,0-9.5,2.77c-2.71,1.86-4,4.6-4,8.25a9.63,9.63,0,0,0,4.52,8.45,17.58,17.58,0,0,0,10,3,13.22,13.22,0,0,0,7.17-1.91,9.69,9.69,0,0,0,3.65,5h0a12.86,12.86,0,0,0,7.23,1.86c3.11,0,5.36-1.89,5.13-3.43a3.92,3.92,0,0,0-1.53-2.8c.58-.23,1.07-.31,1.38-.83,2.36,1.83,0,4.34.15,5.94,1.52.54,2.67-.37,2.79-2,.17-2-.55-3.22-1.58-4.82.57.06.95-.26.92-.51,1.09.34,2.41,5.42,1.87,6.7.75-.14,3.34-1.31,2-5-1.42-3.11-5.07-4-7.61-5.54v0Zm-14-2.88A7.84,7.84,0,0,1,180.74,72c-2.76,0-4.29-1.37-4.29-3.08s1.33-3,3.6-3a12.06,12.06,0,0,1,3.69.63,8,8,0,0,1,2.47,1.17v2.54Z"/><path class="cls-1" d="M93.93,22.75c0,3.17,1.21,5.34,2.88,6.14a8,8,0,0,0,3.63,1h.23A7.49,7.49,0,0,0,106,27.8a6.76,6.76,0,0,0,2.24-5.11c.52.29,1,.57,1.56.89a8.21,8.21,0,0,1-2.65,6.16,9.09,9.09,0,0,1-6.48,2.57,9.79,9.79,0,0,1-3.22-.51c-1.73.94-1.9,3.57-1.9,5.28,0,2,0,33.77.23,38.31.14,3.48,2.07,5.14,6.62,5.14,3.54,0,6.13-.86,7.8-2.52V35.45a4.35,4.35,0,0,0-1.5-3.54,8.83,8.83,0,0,0,3.86-7.53,8.68,8.68,0,0,0-2.88-6.71A10.23,10.23,0,0,0,102.46,15c-4.67,0-8.53,2.69-8.53,7.71Z"/><path class="cls-2" d="M267.66,59a15.28,15.28,0,0,0-1.61-7.22c-1.73-3.88-5.87-6.94-13.73-7.05-8.09-.14-12.55,3.48-14.71,7.11a11.59,11.59,0,0,0-1.73,3.91,24.46,24.46,0,0,0-.87,5.93c0,5.8,2.13,11.45,8,14.42,4.86,2.48,17.3,3.43,21.68.17,3-2.31,3.05-7.19-.63-8.88a14.62,14.62,0,0,0-2.42-.74,8,8,0,0,1-2,1.12c-3.28,1.22-8.92,1.71-11.83-.49-1-.77-1.36-1.57-1.21-1.77h19c1.35-.68,2-2.83,2-6.51Zm-20.35.06c.37-4.34,3.22-5,4.72-4.83,3,0,4.69,1.89,4.69,4.4v.43Z"/><path class="cls-2" d="M265.36,54.35c-.75.2-1.52,1.6-2.27,1.8-.06,0,4.11,1.23,4.11,3.88,0,2-11.28,3.11-11.22,3.43.17.6.92,1.17,2.33,1.71.8.31,12.9.48,13.59.66-1.85,10-1.56,27.71,12.18,27.71,3.11,0,3.71-1.82,3.48-3.34A3.91,3.91,0,0,0,286,87.38c.58-.23,1.07-.32,1.39-.83,2.36,1.86,1.64,4.28,1.78,5.88,1.53.57,2.68-.37,2.79-2,.18-2-.54-3.25-1.58-4.82.58,0,.95-.29.92-.52,1.1.35,2.42,5.4,1.87,6.71.75-.17,3.34-1.31,2-5-1.41-3.11-5.07-4.06-7.6-5.54v0a.25.25,0,0,1-.14-.06c-3.08-1.85-2.19-4.36-2.16-7.76,0-3.11.14-6.19.23-6.62,2.13,0,6.65-.32,8.75-.49,1.73-.2,2.59-1.91,2.59-5.28a30.26,30.26,0,0,0-.49-5,14.87,14.87,0,0,0-.29-2.51c-3.34.14-7.28.48-10.62.48,0-2.77-.12-16.5-1-18.27s-.81-2.65-3.77-2.88a9.75,9.75,0,0,0-1.73-.09,17,17,0,0,0-5.58.94,6.64,6.64,0,0,0-1.79.86c.06,1.23.12,2.57.32,4,.05,1.22.23,15,.29,15.67-1.85,1.4-4.58-.49-6.83.14Z"/><path class="cls-2" d="M214.34,49a5.27,5.27,0,0,0-2-4.11,6.69,6.69,0,0,0-4.52-1.71,17,17,0,0,0-6.05,1.17,10.09,10.09,0,0,0-2.36,1.08c.09,6.31.14,11.85.2,16.67,0,6.26-.32,14.73.46,21.13.81,12.3,4.95,21.75,13.65,25,13.76,5.17,22.26-4.51,32-6.73,8.81-2,2.59,2.77.77,4.65s-2.47,4.08-1,6.08c3.59,4.91,7.83,1.68,11.17-1a9.43,9.43,0,0,0,3.16-9.88,10.93,10.93,0,0,0-4.57-6c-9.82-6.25-15.44,1.08-28.31,2.82-13.47,1.8-10.3-12.9-10.3-22.78a10.1,10.1,0,0,0,6.3,1.86,15.65,15.65,0,0,0,9-3.31c3.14-2.29,5.39-7,5.39-13.19,0-13.25-8.73-16.41-14.22-16.41A10.26,10.26,0,0,0,214.34,49Zm-.49,11.93c0-3.48,1.73-5.45,4.15-5.45s4.06,2.71,4.06,5.71c0,3.48-1.9,5.57-3.95,5.57-2.27,0-4.26-2.14-4.26-5.83Z"/><path class="cls-3" d="M242.64,110c.52,2.76,1.67,3.85,3.66,6.42-2.94-2.23-3.74-2.23-3.66-6.42Z"/><path class="cls-3" d="M262.51,103.68c-.81-4.28-2.59-5.94-5.61-9.91,4.52,3.46,5.75,3.46,5.61,9.91Z"/><path class="cls-3" d="M264.56,100.22c-.58-2.91-1.79-4.08-3.86-6.79,3.11,2.37,3.94,2.37,3.86,6.79Z"/><path class="cls-4" d="M3.41,51.35a4.83,4.83,0,0,1,1.27,1.43,22,22,0,0,0,7.83,4.85c4.12,1.49,6.22,1.6,11.17,1.66-.29.85-5.38,5.59-8.52,13.7-1.44,3.71-.43,3.8.05,5.51.64.34.49.37,1,.77l.89.83c2.42.54,2.68-.17,3.63-1.8,3.19-5.42,10-10.25,16.46-11.59,4.78-1,7-.14,9.45-1.57.23-.31.06-.17.34-.43l.26-.17c1.21-.94.64-.83,1.53-1.6a29.74,29.74,0,0,0,1.64-5.14c.43-1.42,1.61-7.3,2.56-8.07a2,2,0,0,1,2.57.11c1.38,1.34,1,9.11,6.16,7.56,2-.57,2.36-2,2.85-4.16a4.74,4.74,0,0,1,1.06-2.52,2.05,2.05,0,0,1,2.59.09c.67.66,1.33,3.91,1.67,5.17,1.88,7.13,4,14.7,5.88,22,1,4,7.51,3.2,6.79-1.91C81.9,72,81,68.19,80.4,64.31l-1.76-8.79c-.23-1-.4-1.74-.6-2.68-1-4.26-.89-9-3.37-10.65-1.27-.83-13.07-4.2-16-5a42.24,42.24,0,0,0-5.35-1.46C48.5,35,50.63,42.5,39,49.1a24.06,24.06,0,0,1-10.77,3.31A24.92,24.92,0,0,1,19.16,51c-.72-.29-1.67-.91-2.19-1.09a7.13,7.13,0,0,1-2.16-2.11c-.46-1.28-2.93-4-1.35-8.73,2.24-6.71,8.23-6,9.67-7.17a3.16,3.16,0,0,0,.46-4.2c-2.5-3.33-17.13-4.22-22,6.68C-1,40.16-.33,47.27,3.41,51.35Z"/><path class="cls-4" d="M71.59,16.44a2,2,0,0,1,1.5,3.77c-2.65,1.05-4.15-2.86-1.5-3.77ZM84.89,30.8a4.84,4.84,0,0,1,1.7-1.8c1.09-2,3.57-4.68,2.65-8.62s-4.72-2.57-8.58-2.85c-2-.15-1.35-1.92-2.22-3.54-2.68-5.14-9-2.32-13.7-3.2-.92-.26-1.1-.46-1.36-1.37a70.55,70.55,0,0,0-3.25-8C59-.4,54.57-1.37,54.57,4.19c0,3.72,0,7.43,0,11.14,0,2.91-.32,8.33.25,10.87,2.19,9.62,14.46,11.08,23,8.51,3.72-1.11,4.61-2.23,7.14-3.91Z"/><path class="cls-5" d="M71.59,16.44c-2.65.91-1.15,4.82,1.5,3.77a2,2,0,0,0-1.5-3.77Z"/><path class="cls-4" d="M64,63.71a1.57,1.57,0,1,0,3-.94,1.57,1.57,0,0,0-3,.94Z"/><path class="cls-4" d="M54.75,63.71a1.59,1.59,0,1,0,3-1,1.59,1.59,0,0,0-3,1Z"/><path class="cls-4" d="M59.44,67.08c-.4,1.86,1.27,3.63,2.62,1.66s-1.12-2.94-2.62-1.66Z"/><text class="cls-6" transform="translate(11.99 100.22) scale(1.01 1)"><tspan class="cls-7">C</tspan><tspan class="cls-8" x="8.52" y="0">O</tspan><tspan class="cls-9" x="19.5" y="0">N</tspan><tspan class="cls-10" x="29.57" y="0">S</tspan><tspan class="cls-11" x="37.24" y="0">U</tspan><tspan class="cls-12" x="47.1" y="0">L</tspan><tspan class="cls-13" x="52.56" y="0">T</tspan><tspan class="cls-8" x="60.15" y="0">Ó</tspan><tspan class="cls-14" x="71.13" y="0">R</tspan><tspan class="cls-15" x="80.1" y="0">I</tspan><tspan class="cls-16" x="83.49" y="0">O</tspan><tspan class="cls-15" x="94.63" y="0"> </tspan><tspan class="cls-17" x="98.02" y="0">V</tspan><tspan class="cls-18" x="106.57" y="0">E</tspan><tspan class="cls-19" x="115.25" y="0">T</tspan><tspan class="cls-20" x="123.14" y="0">E</tspan><tspan class="cls-14" x="131.47" y="0">R</tspan><tspan class="cls-15" x="140.45" y="0">I</tspan><tspan class="cls-9" x="143.84" y="0">N</tspan><tspan class="cls-21" x="153.91" y="0">Á</tspan><tspan class="cls-14" x="162.29" y="0">R</tspan><tspan class="cls-15" x="171.26" y="0">I</tspan><tspan x="174.65" y="0">O</tspan></text></g></g></g></g></svg>