<svg xmlns="http://www.w3.org/2000/svg" viewBox="0 0 285.12 111.84"><defs><style>.cls-1,.cls-3,.cls-6{fill:#fff;}.cls-2,.cls-4{fill:#ffd933;}.cls-3,.cls-4,.cls-5{fill-rule:evenodd;}.cls-5{fill:#5f4394;}.cls-6{font-size:13.25px;font-family:ArialMT, Arial;}.cls-7{letter-spacing:-0.1em;}.cls-8{letter-spacing:0.02em;}.cls-9{letter-spacing:0.01em;}.cls-10{letter-spacing:-0.11em;}.cls-11{letter-spacing:-0.01em;}.cls-12{letter-spacing:-0.16em;}.cls-13{letter-spacing:-0.06em;}.cls-14{letter-spacing:0.02em;}.cls-15{letter-spacing:-0.07em;}.cls-16{letter-spacing:-0.03em;}.cls-17{letter-spacing:0.03em;}.cls-18{letter-spacing:-0.03em;}.cls-19{letter-spacing:-0.05em;}.cls-20{letter-spacing:-0.04em;}.cls-21{letter-spacing:-0.04em;}.cls-22{letter-spacing:-0.06em;}.cls-23{letter-spacing:-0.07em;}.cls-24{letter-spacing:-0.06em;}</style></defs><g id="Camada_2" data-name="Camada 2"><g id="_1-Splash" data-name="1-Splash"><g id="Logomarca"><path class="cls-1" d="M123.17,48.45c0-1.1,0-2.91,0-5.48V38.11c0-4.39-2.52-7.79-7.22-7.79a15.52,15.52,0,0,0-5.47,1,14.22,14.22,0,0,0-2.13,1c0,5.1.11,9.6.16,13.46,0,2.47.09,5.49.11,7.63s.11,12.14.11,13.24v.77c0,6.44,3.07,9.68,9.16,9.68,3.7,0,4.34-1.43,4.78-2.5l.17-.38Z"/><path class="cls-1" d="M147.7,39.18c-2.44,0-5.18,1.15-8.22,3.4l-.27.22a24.09,24.09,0,0,0,.44-4.33c0-4.69-2.05-7.32-6.2-8a4,4,0,0,0-1.38-.17,14,14,0,0,0-4.89,1c-.5.17-1.28.5-2.22.93.17,5.57.28,9.3.28,11.11,0,1.53-.06,3.87-.11,7s-.17,5.32-.17,6.58c0,3,.06,12.7.67,15,.83,3.09,2.76,5,7.1,5a17.3,17.3,0,0,0,5.37-.76,4.27,4.27,0,0,0,1.38-.77V54.26a3.71,3.71,0,0,1,1.72-1.83,2.38,2.38,0,0,1,.94-.28,1.75,1.75,0,0,1,2,2c0-.27-.28,14-.28,16.67,0,3.32,2.16,6.34,7.08,6.34a10.88,10.88,0,0,0,5.67-1.32A4,4,0,0,0,158,74.53c.27-10.51.55-24.57.55-26v-.05c0-6.23-3.62-9.3-10.81-9.3Z"/><path class="cls-1" d="M192.31,70.25c-.06,0-.09-.06-.14-.06a5.26,5.26,0,0,1-2-1.92v-.08c0-1,.13-2.69.33-4.88s.33-3.76.33-4.83c0-5.53-1.69-10.17-5.34-13.16s-7.82-3.89-13.36-3.89c-4.06,0-5.86.66-9.73,2-.47.85-.72,1.54-.72,4.2,0,4.74,2.32,6.14,6.33,6.14,1.52,0,3.65-.46,4.93-.46,4.12,0,6.19,1.26,6.19,3.7v.46a23.34,23.34,0,0,0-8.52-1.72,15.21,15.21,0,0,0-9.12,2.66,9,9,0,0,0-3.88,7.92A9.25,9.25,0,0,0,162,74.42a16.86,16.86,0,0,0,9.65,2.9,12.71,12.71,0,0,0,6.89-1.83A9.17,9.17,0,0,0,182,80.31h0A12.32,12.32,0,0,0,189,82.09c3,0,5.14-1.81,4.92-3.29a3.72,3.72,0,0,0-1.46-2.68c.55-.22,1-.31,1.32-.8,2.27,1.76,0,4.17.14,5.7,1.47.53,2.57-.35,2.68-1.92.17-1.89-.52-3.09-1.52-4.63.56.06.92-.25.89-.49,1,.33,2.32,5.21,1.8,6.44.72-.14,3.2-1.26,1.88-4.83-1.36-3-4.87-3.89-7.3-5.31v0Zm-13.45-2.77a7.53,7.53,0,0,1-5.25,1.64c-2.65,0-4.12-1.31-4.12-3s1.27-2.85,3.46-2.85a11.62,11.62,0,0,1,3.54.6A7.76,7.76,0,0,1,178.86,65v2.44Z"/><path class="cls-1" d="M90.23,21.85c0,3,1.16,5.13,2.76,5.9a7.82,7.82,0,0,0,3.49,1h.22a7.18,7.18,0,0,0,5.11-2A6.5,6.5,0,0,0,104,21.8c.5.27,1,.55,1.5.85a7.88,7.88,0,0,1-2.55,5.92A8.76,8.76,0,0,1,96.7,31a9.37,9.37,0,0,1-3.1-.5c-1.66.91-1.82,3.43-1.82,5.08,0,1.92,0,32.43.22,36.79.14,3.35,2,4.94,6.36,4.94,3.4,0,5.89-.82,7.49-2.41V34.05a4.18,4.18,0,0,0-1.44-3.4,8.49,8.49,0,0,0,3.71-7.24A8.32,8.32,0,0,0,105.35,17a9.82,9.82,0,0,0-6.94-2.52c-4.48,0-8.18,2.58-8.18,7.4Z"/><path class="cls-2" d="M257.1,56.7a14.75,14.75,0,0,0-1.54-6.93C253.9,46,249.91,43.1,242.36,43c-7.77-.13-12.05,3.35-14.13,6.83a11.6,11.6,0,0,0-1.66,3.76,23.63,23.63,0,0,0-.83,5.7c0,5.57,2,11,7.69,13.85,4.67,2.38,16.62,3.29,20.83.16,2.87-2.22,2.93-6.91-.61-8.53a13.56,13.56,0,0,0-2.33-.71,7.48,7.48,0,0,1-1.93,1.07c-3.15,1.18-8.58,1.65-11.37-.47-1-.74-1.3-1.5-1.16-1.7h18.28c1.3-.65,2-2.71,2-6.25Zm-19.55.06c.36-4.17,3.1-4.83,4.54-4.64,2.9,0,4.5,1.81,4.5,4.23v.41Z"/><path class="cls-2" d="M254.89,52.21c-.72.19-1.46,1.53-2.18,1.72-.06,0,4,1.18,4,3.73,0,1.92-10.84,3-10.78,3.29.16.58.88,1.13,2.24,1.65.77.3,12.39.46,13.05.63-1.77,9.65-1.49,26.62,11.7,26.62,3,0,3.57-1.75,3.34-3.2a3.82,3.82,0,0,0-1.46-2.72c.55-.22,1-.3,1.33-.79,2.26,1.78,1.57,4.11,1.71,5.64,1.47.55,2.57-.35,2.68-1.89.17-1.92-.52-3.12-1.52-4.63.56,0,.92-.28.89-.5,1.05.33,2.32,5.19,1.8,6.45.71-.17,3.2-1.26,1.88-4.86-1.36-3-4.87-3.89-7.31-5.31v0s-.08,0-.13-.06c-3-1.78-2.11-4.19-2.08-7.46,0-3,.14-5.95.22-6.36,2,0,6.39-.3,8.41-.46,1.66-.19,2.49-1.84,2.49-5.08a29.91,29.91,0,0,0-.47-4.82,14.74,14.74,0,0,0-.28-2.41c-3.2.13-7,.46-10.2.46,0-2.66-.11-15.85-.94-17.55s-.78-2.55-3.63-2.77a10,10,0,0,0-1.65-.08,16,16,0,0,0-5.37.91,6.2,6.2,0,0,0-1.71.82c.05,1.18.11,2.47.3,3.87.06,1.17.22,14.39.28,15-1.77,1.34-4.4-.47-6.56.14Z"/><path class="cls-2" d="M205.88,47.08a5,5,0,0,0-2-3.95,6.44,6.44,0,0,0-4.34-1.65,16.34,16.34,0,0,0-5.81,1.13,9.7,9.7,0,0,0-2.27,1c.09,6.06.14,11.38.2,16,0,6-.31,14.15.44,20.29.77,11.82,4.76,20.9,13.11,24,13.22,5,21.38-4.33,30.78-6.47,8.46-2,2.49,2.66.75,4.47s-2.38,3.92-1,5.84c3.46,4.72,7.52,1.62,10.73-.93a9.06,9.06,0,0,0,3-9.49,10.51,10.51,0,0,0-4.39-5.76c-9.43-6-14.83,1-27.19,2.72-12.94,1.73-9.9-12.4-9.9-21.88a9.74,9.74,0,0,0,6.06,1.78,15.09,15.09,0,0,0,8.63-3.18c3-2.2,5.17-6.77,5.17-12.67,0-12.72-8.38-15.77-13.67-15.77a9.86,9.86,0,0,0-8.38,4.42Zm-.47,11.46c0-3.35,1.66-5.24,4-5.24s3.9,2.61,3.9,5.49c0,3.34-1.83,5.34-3.79,5.34-2.19,0-4.1-2-4.1-5.59Z"/><path class="cls-3" d="M233.07,105.67c.5,2.66,1.61,3.71,3.51,6.17-2.82-2.13-3.59-2.13-3.51-6.17Z"/><path class="cls-3" d="M252.15,99.59c-.77-4.12-2.49-5.71-5.39-9.52,4.34,3.32,5.53,3.32,5.39,9.52Z"/><path class="cls-3" d="M254.12,96.27c-.56-2.8-1.72-3.92-3.71-6.53,3,2.28,3.79,2.28,3.71,6.53Z"/><path class="cls-4" d="M3.28,49.33A4.29,4.29,0,0,1,4.49,50.7,21.44,21.44,0,0,0,12,55.36c4,1.42,6,1.53,10.74,1.59-.28.82-5.18,5.37-8.19,13.16-1.38,3.57-.42,3.65,0,5.29.61.33.47.36.92.74l.85.8c2.33.52,2.58-.17,3.49-1.73,3.07-5.21,9.62-9.84,15.82-11.13,4.59-1,6.75-.14,9.07-1.51.22-.3.06-.16.33-.41.06,0,.2-.14.25-.17,1.16-.9.61-.79,1.47-1.53a28.57,28.57,0,0,0,1.57-4.94c.42-1.37,1.55-7,2.46-7.76a2,2,0,0,1,2.47.11c1.32,1.29.91,8.75,5.91,7.27,1.91-.55,2.27-2,2.74-4a4.53,4.53,0,0,1,1-2.42,2,2,0,0,1,2.48.09c.64.63,1.28,3.75,1.61,5,1.8,6.85,3.84,14.12,5.64,21.17,1,3.86,7.22,3.07,6.53-1.84-.58-3.95-1.5-7.6-2-11.32l-1.69-8.45c-.22-1-.39-1.67-.58-2.58-.91-4.08-.86-8.61-3.24-10.23-1.21-.79-12.55-4-15.37-4.82a40.72,40.72,0,0,0-5.15-1.4c-4.61-.69-2.57,6.53-13.71,12.86a23.16,23.16,0,0,1-10.35,3.18A23.92,23.92,0,0,1,18.4,49c-.69-.27-1.6-.87-2.1-1a6.8,6.8,0,0,1-2.07-2c-.45-1.23-2.82-3.86-1.3-8.39,2.15-6.44,7.91-5.75,9.29-6.88a3,3,0,0,0,.44-4c-2.4-3.21-16.45-4.06-21.18,6.42C-1,38.58-.32,45.41,3.28,49.33Z"/><path class="cls-4" d="M68.77,15.79a2,2,0,0,1,1.43,3.62,1.95,1.95,0,1,1-1.43-3.62ZM81.54,29.58a4.74,4.74,0,0,1,1.63-1.72c1.06-1.92,3.43-4.5,2.55-8.28s-4.54-2.47-8.24-2.75c-2-.13-1.3-1.83-2.13-3.4-2.57-4.93-8.66-2.22-13.17-3.07-.88-.24-1-.44-1.3-1.31A67.52,67.52,0,0,0,57.76,1.4C56.68-.39,52.42-1.32,52.42,4c0,3.56,0,7.13,0,10.69,0,2.8-.3,8,.25,10.45,2.1,9.24,13.89,10.64,22,8.17,3.57-1.07,4.43-2.14,6.86-3.76Z"/><path class="cls-5" d="M68.77,15.79a2,2,0,1,0,1.43,3.62,1.95,1.95,0,0,0-1.43-3.62Z"/><path class="cls-4" d="M61.49,61.2a1.51,1.51,0,1,0,2.88-.91,1.51,1.51,0,0,0-2.88.91Z"/><path class="cls-4" d="M52.59,61.2a1.52,1.52,0,1,0,2.9-.93,1.52,1.52,0,0,0-2.9.93Z"/><path class="cls-4" d="M57.09,64.43c-.38,1.79,1.22,3.49,2.52,1.6s-1.08-2.83-2.52-1.6Z"/><text class="cls-6" transform="translate(11.51 96.27) scale(1.01 1)"><tspan class="cls-7">C</tspan><tspan class="cls-8" x="8.18" y="0">O</tspan><tspan class="cls-9" x="18.73" y="0">N</tspan><tspan class="cls-10" x="28.4" y="0">S</tspan><tspan class="cls-11" x="35.77" y="0">U</tspan><tspan class="cls-12" x="45.24" y="0">L</tspan><tspan class="cls-13" x="50.49" y="0">T</tspan><tspan class="cls-14" x="57.78" y="0">Ó</tspan><tspan class="cls-15" x="68.32" y="0">R</tspan><tspan class="cls-16" x="76.94" y="0">I</tspan><tspan class="cls-17" x="80.2" y="0">O</tspan><tspan class="cls-18" x="90.89" y="0"> </tspan><tspan class="cls-19" x="94.15" y="0">V</tspan><tspan class="cls-20" x="102.37" y="0">E</tspan><tspan class="cls-21" x="110.7" y="0">T</tspan><tspan class="cls-22" x="118.28" y="0">E</tspan><tspan class="cls-23" x="126.29" y="0">R</tspan><tspan class="cls-16" x="134.9" y="0">I</tspan><tspan class="cls-9" x="138.16" y="0">N</tspan><tspan class="cls-24" x="147.84" y="0">Á</tspan><tspan class="cls-23" x="155.88" y="0">R</tspan><tspan class="cls-16" x="164.5" y="0">I</tspan><tspan x="167.76" y="0">O</tspan></text></g></g></g></svg>