<svg xmlns="http://www.w3.org/2000/svg" viewBox="0 0 22.84 22.9"><defs><style>.cls-1,.cls-2{fill:#fff;}.cls-2{fill-rule:evenodd;}</style></defs><g id="Camada_2" data-name="Camada 2"><g id="Tela_1" data-name="Tela 1"><g id="Início"><path class="cls-1" d="M0,22.9l1.64-6.12a11.36,11.36,0,1,1,4.52,4.47ZM6.46,19l.39.23a9.17,9.17,0,1,0-4.49-7.88A9.23,9.23,0,0,0,3.7,16.07l.24.39L3,19.88Z"/><path class="cls-2" d="M15.74,12.88a1.9,1.9,0,0,0-1.62-.36c-.42.17-.69.83-1,1.17a.4.4,0,0,1-.52.11A7.3,7.3,0,0,1,9,10.66a.45.45,0,0,1,0-.61A2.4,2.4,0,0,0,9.7,9a2.4,2.4,0,0,0-.3-1.28,3.09,3.09,0,0,0-.94-1.42,1.29,1.29,0,0,0-1.41.21,2.86,2.86,0,0,0-1,2.26,3.36,3.36,0,0,0,.08.71A6.23,6.23,0,0,0,6.84,11a12.82,12.82,0,0,0,.72,1.09A11.13,11.13,0,0,0,10.67,15a9.56,9.56,0,0,0,1.94.92,4.29,4.29,0,0,0,2.26.36,2.74,2.74,0,0,0,2.05-1.52A1.4,1.4,0,0,0,17,14C16.9,13.46,16.17,13.14,15.74,12.88Z"/></g></g></g></svg>